<svg xmlns="http://www.w3.org/2000/svg" xmlns:xlink="http://www.w3.org/1999/xlink" width="500" zoomAndPan="magnify" viewBox="0 0 375 374.999991" height="500" preserveAspectRatio="xMidYMid meet" version="1.0"><defs><g/><clipPath id="e9db156cd4"><path d="M 41.390625 147 L 95 147 L 95 258 L 41.390625 258 Z M 41.390625 147 " clip-rule="nonzero"/></clipPath><clipPath id="6e1b183940"><path d="M 277 147.257812 L 329.390625 147.257812 L 329.390625 258 L 277 258 Z M 277 147.257812 " clip-rule="nonzero"/></clipPath><clipPath id="940f8ca95e"><path d="M 88 29.941406 L 284 29.941406 L 284 91 L 88 91 Z M 88 29.941406 " clip-rule="nonzero"/></clipPath><clipPath id="298a5371b7"><path d="M 158.160156 303 L 212.75 303 L 212.75 325.441406 L 158.160156 325.441406 Z M 158.160156 303 " clip-rule="nonzero"/></clipPath></defs><g clip-path="url(#e9db156cd4)"><path fill="#009aff" d="M 94.058594 157.898438 C 94.445312 153.628906 91.933594 149.6875 87.882812 148.277344 C 87.203125 148.046875 86.53125 147.8125 85.855469 147.578125 C 84.320312 147.042969 82.652344 147.246094 81.28125 148.152344 C 79.90625 149.054688 79.019531 150.539062 78.851562 152.210938 C 78.769531 153.0625 78.6875 153.914062 78.605469 154.769531 C 78.605469 154.769531 74.214844 153.363281 66.773438 152.660156 C 61.027344 152.101562 55.820312 156.53125 54.882812 162.726562 C 48.175781 163.242188 42.574219 169.316406 42.21875 177.105469 C 41.433594 194.121094 41.433594 211.160156 42.21875 228.175781 C 42.574219 235.964844 48.175781 242.039062 54.882812 242.554688 C 55.820312 248.75 61.027344 253.179688 66.773438 252.617188 C 74.214844 251.914062 78.605469 250.511719 78.605469 250.511719 C 78.6875 251.363281 78.769531 252.21875 78.851562 253.070312 C 79.019531 254.742188 79.90625 256.222656 81.28125 257.128906 C 82.3125 257.8125 83.515625 258.09375 84.707031 257.964844 C 85.09375 257.921875 85.480469 257.832031 85.855469 257.703125 C 86.53125 257.46875 87.203125 257.234375 87.882812 257 C 91.933594 255.59375 94.445312 251.652344 94.058594 247.382812 C 91.347656 217.617188 91.347656 187.664062 94.058594 157.898438 " fill-opacity="1" fill-rule="nonzero"/></g><g clip-path="url(#6e1b183940)"><path fill="#009aff" d="M 328.878906 177.105469 C 328.523438 169.316406 322.921875 163.242188 316.214844 162.726562 C 315.277344 156.53125 310.066406 152.101562 304.324219 152.660156 C 296.882812 153.363281 292.492188 154.769531 292.492188 154.769531 C 292.414062 153.914062 292.328125 153.0625 292.246094 152.210938 C 292.078125 150.539062 291.191406 149.054688 289.816406 148.152344 C 288.785156 147.46875 287.578125 147.1875 286.390625 147.320312 C 286.003906 147.359375 285.617188 147.445312 285.242188 147.578125 C 284.566406 147.8125 283.890625 148.046875 283.214844 148.277344 C 279.160156 149.6875 276.652344 153.628906 277.039062 157.898438 C 279.746094 187.664062 279.746094 217.617188 277.039062 247.382812 C 276.652344 251.652344 279.160156 255.59375 283.214844 257 C 283.890625 257.234375 284.566406 257.46875 285.242188 257.703125 C 286.777344 258.238281 288.445312 258.03125 289.816406 257.128906 C 291.191406 256.222656 292.078125 254.742188 292.246094 253.070312 C 292.328125 252.21875 292.414062 251.363281 292.492188 250.511719 C 292.492188 250.511719 296.882812 251.914062 304.324219 252.617188 C 310.066406 253.179688 315.277344 248.75 316.214844 242.554688 C 322.921875 242.039062 328.523438 235.964844 328.878906 228.175781 C 329.664062 211.160156 329.664062 194.121094 328.878906 177.105469 " fill-opacity="1" fill-rule="nonzero"/></g><path fill="#009aff" d="M 303.511719 156.566406 L 299.574219 156.566406 C 299.574219 130.898438 291.25 106.667969 275.5 86.488281 L 278.605469 84.066406 C 286.519531 94.207031 292.675781 105.476562 296.910156 117.566406 C 301.289062 130.070312 303.511719 143.191406 303.511719 156.566406 " fill-opacity="1" fill-rule="nonzero"/><path fill="#009aff" d="M 71.523438 156.566406 L 67.585938 156.566406 C 67.585938 143.191406 69.808594 130.070312 74.1875 117.5625 C 78.421875 105.476562 84.582031 94.203125 92.492188 84.0625 L 95.597656 86.484375 C 79.847656 106.667969 71.523438 130.902344 71.523438 156.566406 " fill-opacity="1" fill-rule="nonzero"/><g clip-path="url(#940f8ca95e)"><path fill="#009aff" d="M 281.152344 73.535156 C 279.222656 71.316406 277.179688 69.128906 275.082031 67.03125 C 263.453125 55.402344 249.914062 46.273438 234.835938 39.898438 C 219.214844 33.292969 202.632812 29.941406 185.546875 29.941406 C 168.460938 29.941406 151.878906 33.292969 136.257812 39.898438 C 121.179688 46.269531 107.640625 55.398438 96.011719 67.027344 C 93.917969 69.121094 91.882812 71.304688 89.957031 73.515625 C 87.226562 76.648438 87.394531 81.410156 90.335938 84.351562 L 94.175781 88.195312 C 95.664062 89.679688 97.695312 90.519531 99.789062 90.519531 C 99.882812 90.519531 99.980469 90.515625 100.074219 90.511719 C 102.28125 90.433594 104.375 89.425781 105.820312 87.753906 C 125.894531 64.523438 154.957031 51.199219 185.546875 51.199219 C 216.136719 51.199219 245.199219 64.523438 265.273438 87.753906 C 266.71875 89.425781 268.816406 90.433594 271.019531 90.511719 C 273.210938 90.59375 275.363281 89.746094 276.917969 88.195312 L 280.761719 84.351562 C 283.699219 81.414062 283.871094 76.660156 281.152344 73.535156 " fill-opacity="1" fill-rule="nonzero"/></g><path fill="#009aff" d="M 237.851562 316.234375 L 212.328125 316.234375 L 212.328125 312.296875 L 237.851562 312.296875 C 271.886719 312.296875 299.574219 284.609375 299.574219 250.578125 L 303.511719 250.578125 C 303.511719 268.113281 296.679688 284.601562 284.28125 297.003906 C 271.878906 309.40625 255.390625 316.234375 237.851562 316.234375 " fill-opacity="1" fill-rule="nonzero"/><g clip-path="url(#298a5371b7)"><path fill="#009aff" d="M 210 308.222656 L 207.335938 305.871094 C 205.261719 304.042969 202.597656 303.039062 199.835938 303.039062 L 169.59375 303.039062 C 163.402344 303.039062 158.367188 308.074219 158.367188 314.265625 C 158.367188 320.457031 163.402344 325.496094 169.59375 325.496094 L 199.835938 325.496094 C 202.597656 325.496094 205.261719 324.488281 207.335938 322.660156 L 210.003906 320.3125 C 211.738281 318.78125 212.734375 316.578125 212.734375 314.265625 C 212.734375 311.953125 211.738281 309.75 210 308.222656 " fill-opacity="1" fill-rule="nonzero"/></g><path stroke-linecap="butt" transform="matrix(1.035879, 0, 0, 1.035879, 30.786876, -53.000005)" fill="none" stroke-linejoin="miter" d="M 157.801357 141.685975 C 158.936413 141.685975 160.116721 142.06307 161.34228 142.821031 C 162.571611 143.669495 163.657645 144.616004 164.604154 145.656787 C 165.452618 146.693799 166.161557 147.828855 166.730971 149.058185 C 167.296613 150.095197 167.485161 151.086957 167.296613 152.033466 L 137.392966 288.511752 C 137.298692 289.269713 136.684027 290.261473 135.548971 291.487032 C 134.606233 292.716363 133.376902 293.851419 131.864751 294.888431 C 131.11056 295.457845 130.378996 295.951839 129.670057 296.377957 C 128.961118 296.804074 128.229553 297.252818 127.471592 297.724187 C 125.770893 298.482148 124.447289 298.859243 123.504551 298.859243 L 28.265394 298.859243 L 57.88622 163.65554 L 41.162049 141.685975 Z M 95.584424 172.01574 L 74.467094 268.529478 L 102.387221 268.529478 L 123.504551 172.01574 Z M 95.584424 172.01574 " stroke="#000000" stroke-width="11.247381" stroke-opacity="1" stroke-miterlimit="4"/><g fill="#ffffff" fill-opacity="1"><g transform="translate(60.066646, 256.727838)"><g><path d="M 134.171875 -162.953125 C 135.347656 -162.953125 136.570312 -162.5625 137.84375 -161.78125 C 139.125 -160.894531 140.25 -159.914062 141.21875 -158.84375 C 142.101562 -157.769531 142.835938 -156.59375 143.421875 -155.3125 C 144.015625 -154.238281 144.210938 -153.210938 144.015625 -152.234375 L 113.046875 -10.859375 C 112.941406 -10.078125 112.300781 -9.050781 111.125 -7.78125 C 110.144531 -6.507812 108.875 -5.332031 107.3125 -4.25 C 106.53125 -3.664062 105.769531 -3.15625 105.03125 -2.71875 C 104.300781 -2.28125 103.546875 -1.816406 102.765625 -1.328125 C 101.003906 -0.535156 99.632812 -0.140625 98.65625 -0.140625 L 0 -0.140625 L 30.6875 -140.203125 L 13.359375 -162.953125 Z M 69.734375 -131.53125 L 47.859375 -31.5625 L 76.78125 -31.5625 L 98.65625 -131.53125 Z M 69.734375 -131.53125 "/></g></g></g><path stroke-linecap="butt" transform="matrix(1.035879, 0, 0, 1.035879, 166.735378, -53.000005)" fill="none" stroke-linejoin="miter" d="M 129.527453 229.413396 L 114.360685 298.859243 L 19.125299 298.859243 C 17.990242 298.859243 16.809934 298.482148 15.580604 297.724187 C 14.351274 296.875722 13.26524 295.929214 12.322502 294.888431 C 11.470267 293.945693 10.761328 292.810636 10.195685 291.487032 C 9.626271 290.450021 9.437724 289.45826 9.626271 288.511752 L 41.800031 141.685975 L 137.039188 141.685975 C 138.170474 141.685975 139.350782 142.06307 140.580112 142.821031 C 141.809442 143.669495 142.895476 144.616004 143.841985 145.656787 C 144.69045 146.693799 145.399388 147.828855 145.965031 149.058185 C 146.534445 150.095197 146.722993 151.086957 146.534445 152.033466 L 135.760836 201.067152 L 100.898387 179.527475 L 102.599086 172.01574 L 74.535663 172.01574 L 67.876163 202.202208 L 38.255337 202.202208 L 62.208422 228.138814 L 53.422105 268.529478 L 81.481757 268.529478 L 88.001732 238.625831 L 81.764578 238.625831 L 53.844451 208.296066 L 107.840709 208.296066 Z M 129.527453 229.413396 " stroke="#000000" stroke-width="11.247381" stroke-opacity="1" stroke-miterlimit="4"/><g fill="#009aff" fill-opacity="1"><g transform="translate(174.21313, 256.727838)"><g><path d="M 126.6875 -72.078125 L 110.984375 -0.140625 L 12.328125 -0.140625 C 11.148438 -0.140625 9.925781 -0.535156 8.65625 -1.328125 C 7.382812 -2.203125 6.257812 -3.175781 5.28125 -4.25 C 4.40625 -5.226562 3.671875 -6.40625 3.078125 -7.78125 C 2.492188 -8.851562 2.300781 -9.878906 2.5 -10.859375 L 35.828125 -162.953125 L 134.46875 -162.953125 C 135.644531 -162.953125 136.867188 -162.5625 138.140625 -161.78125 C 139.410156 -160.894531 140.535156 -159.914062 141.515625 -158.84375 C 142.398438 -157.769531 143.132812 -156.59375 143.71875 -155.3125 C 144.3125 -154.238281 144.507812 -153.210938 144.3125 -152.234375 L 133.15625 -101.4375 L 97.03125 -123.75 L 98.796875 -131.53125 L 69.734375 -131.53125 L 62.828125 -100.265625 L 32.15625 -100.265625 L 56.953125 -73.40625 L 47.859375 -31.5625 L 76.921875 -31.5625 L 83.671875 -62.53125 L 77.21875 -62.53125 L 48.296875 -93.953125 L 104.234375 -93.953125 Z M 126.6875 -72.078125 "/></g></g></g><g fill="#ffffff" fill-opacity="1"><g transform="translate(58.209272, 280.282245)"><g><path d="M 0.6875 -16.125 C 1.550781 -16.65625 3.296875 -17.066406 5.921875 -17.359375 C 8.742188 -17.671875 11.054688 -16.851562 12.859375 -14.90625 C 13.671875 -14.019531 14.132812 -12.550781 14.25 -10.5 C 14.207031 -7.332031 13.460938 -4.929688 12.015625 -3.296875 C 10.578125 -1.691406 8.515625 -0.679688 5.828125 -0.265625 C 4.066406 -0.015625 2.378906 -0.0390625 0.765625 -0.34375 C 0.609375 -2.945312 0.523438 -5.550781 0.515625 -8.15625 C 0.503906 -10.769531 0.5625 -13.425781 0.6875 -16.125 Z M 5.21875 -5.4375 C 7.175781 -5.476562 8.492188 -6.144531 9.171875 -7.4375 C 9.640625 -8.945312 9.53125 -10.269531 8.84375 -11.40625 C 8.207031 -12.15625 6.988281 -12.382812 5.1875 -12.09375 C 5.164062 -10.957031 5.15625 -9.835938 5.15625 -8.734375 C 5.164062 -7.628906 5.1875 -6.53125 5.21875 -5.4375 Z M 5.21875 -5.4375 "/></g></g></g><g fill="#ffffff" fill-opacity="1"><g transform="translate(72.968485, 280.282245)"><g><path d="M 5.796875 -17.03125 C 5.859375 -14.351562 5.894531 -11.648438 5.90625 -8.921875 C 5.914062 -6.191406 5.890625 -3.410156 5.828125 -0.578125 C 4.304688 -0.328125 2.59375 -0.160156 0.6875 -0.078125 C 0.519531 -3.992188 0.476562 -9.484375 0.5625 -16.546875 C 1.488281 -16.734375 2.382812 -16.863281 3.25 -16.9375 C 4.125 -17.007812 4.972656 -17.039062 5.796875 -17.03125 Z M 5.796875 -17.03125 "/></g></g></g><g fill="#ffffff" fill-opacity="1"><g transform="translate(79.399874, 280.282245)"><g><path d="M 5.25 -5.9375 C 4.238281 -5.9375 3.382812 -6.171875 2.6875 -6.640625 C 1.75 -7.304688 1.175781 -7.972656 0.96875 -8.640625 C 0.332031 -10.640625 0.550781 -12.476562 1.625 -14.15625 C 3.738281 -17.1875 7.550781 -17.757812 13.0625 -15.875 L 12.078125 -11.640625 C 7.546875 -12.617188 5.390625 -12.425781 5.609375 -11.0625 C 5.734375 -10.519531 6.1875 -10.289062 6.96875 -10.375 C 7.320312 -10.414062 7.675781 -10.441406 8.03125 -10.453125 C 8.382812 -10.460938 8.71875 -10.460938 9.03125 -10.453125 C 10.082031 -10.421875 10.941406 -10.179688 11.609375 -9.734375 C 12.554688 -9.085938 13.125 -8.421875 13.3125 -7.734375 C 13.976562 -5.734375 13.757812 -3.894531 12.65625 -2.21875 C 10.507812 0.84375 6.460938 1.375 0.515625 -0.625 L 1.5 -4.796875 C 6.476562 -3.890625 8.878906 -4.0625 8.703125 -5.3125 C 8.578125 -5.851562 8.125 -6.085938 7.34375 -6.015625 C 7 -5.992188 6.65625 -5.972656 6.3125 -5.953125 C 5.96875 -5.941406 5.613281 -5.9375 5.25 -5.9375 Z M 5.25 -5.9375 "/></g></g></g><g fill="#ffffff" fill-opacity="1"><g transform="translate(93.602529, 280.282245)"><g><path d="M 4.859375 -16.375 C 6.679688 -16.59375 8.296875 -16.59375 9.703125 -16.375 C 12.578125 -15.789062 14.054688 -13.859375 14.140625 -10.578125 C 14.085938 -6.828125 12.320312 -4.382812 8.84375 -3.25 C 8.0625 -3.019531 7.050781 -2.882812 5.8125 -2.84375 C 5.8125 -2.363281 5.804688 -1.875 5.796875 -1.375 C 5.796875 -0.875 5.796875 -0.359375 5.796875 0.171875 C 5.085938 0.304688 4.304688 0.410156 3.453125 0.484375 C 2.609375 0.554688 1.6875 0.609375 0.6875 0.640625 C 0.582031 -2.335938 0.53125 -5.179688 0.53125 -7.890625 C 0.53125 -10.597656 0.566406 -13.191406 0.640625 -15.671875 C 0.898438 -15.867188 2.304688 -16.101562 4.859375 -16.375 Z M 5.828125 -7.21875 C 7.992188 -7.425781 9.175781 -8.070312 9.375 -9.15625 C 9.539062 -10.40625 9.28125 -11.226562 8.59375 -11.625 C 8.0625 -11.914062 7.128906 -11.941406 5.796875 -11.703125 C 5.804688 -11.003906 5.8125 -10.28125 5.8125 -9.53125 C 5.820312 -8.78125 5.828125 -8.007812 5.828125 -7.21875 Z M 5.828125 -7.21875 "/></g></g></g><g fill="#ffffff" fill-opacity="1"><g transform="translate(108.258679, 280.282245)"><g><path d="M 6.140625 -2 C 6.078125 -1.6875 6.007812 -1.378906 5.9375 -1.078125 C 5.863281 -0.773438 5.796875 -0.460938 5.734375 -0.140625 C 3.210938 0.0234375 1.472656 -0.0820312 0.515625 -0.46875 C 1.628906 -4.632812 2.570312 -8.082031 3.34375 -10.8125 C 4.125 -13.550781 4.738281 -15.601562 5.1875 -16.96875 C 7.25 -17.4375 9.117188 -17.609375 10.796875 -17.484375 C 11.742188 -15.046875 12.671875 -12.523438 13.578125 -9.921875 C 14.492188 -7.316406 15.390625 -4.59375 16.265625 -1.75 C 15.421875 -1.269531 13.632812 -0.863281 10.90625 -0.53125 C 10.8125 -0.851562 10.722656 -1.164062 10.640625 -1.46875 C 10.554688 -1.769531 10.46875 -2.0625 10.375 -2.34375 C 9.789062 -2.300781 9.148438 -2.25 8.453125 -2.1875 C 7.765625 -2.132812 6.992188 -2.070312 6.140625 -2 Z M 9.109375 -6.53125 C 8.898438 -7.21875 8.707031 -7.832031 8.53125 -8.375 C 8.363281 -8.914062 8.207031 -9.390625 8.0625 -9.796875 C 7.90625 -9.210938 7.753906 -8.640625 7.609375 -8.078125 C 7.472656 -7.515625 7.328125 -6.945312 7.171875 -6.375 Z M 9.109375 -6.53125 "/></g></g></g><g fill="#ffffff" fill-opacity="1"><g transform="translate(125.038008, 280.282245)"><g><path d="M 10.375 -12.03125 C 10.394531 -9.519531 10.40625 -7.304688 10.40625 -5.390625 C 10.40625 -3.472656 10.378906 -1.84375 10.328125 -0.5 C 9.117188 -0.300781 8.082031 -0.164062 7.21875 -0.09375 C 6.363281 -0.03125 5.671875 -0.0234375 5.140625 -0.078125 C 5.109375 -1.910156 5.082031 -3.773438 5.0625 -5.671875 C 5.050781 -7.578125 5.0625 -9.546875 5.09375 -11.578125 C 3.75 -11.460938 2.265625 -11.34375 0.640625 -11.21875 C 0.566406 -11.925781 0.523438 -12.6875 0.515625 -13.5 C 0.515625 -14.320312 0.550781 -15.203125 0.625 -16.140625 C 3.125 -16.429688 5.566406 -16.6875 7.953125 -16.90625 C 10.335938 -17.125 12.6875 -17.304688 15 -17.453125 C 15.070312 -15.941406 15.054688 -14.300781 14.953125 -12.53125 C 14.585938 -12.445312 13.0625 -12.28125 10.375 -12.03125 Z M 10.375 -12.03125 "/></g></g></g><g fill="#ffffff" fill-opacity="1"><g transform="translate(140.601149, 280.282245)"><g><path d="M 8.703125 -11.40625 C 7.554688 -11.320312 6.617188 -10.617188 5.890625 -9.296875 C 5.398438 -8.140625 5.5 -7.066406 6.1875 -6.078125 C 6.800781 -5.328125 7.671875 -5.03125 8.796875 -5.1875 C 9.734375 -5.425781 10.65625 -5.867188 11.5625 -6.515625 C 12.257812 -5.867188 13.164062 -4.570312 14.28125 -2.625 C 14.15625 -2.46875 13.988281 -2.289062 13.78125 -2.09375 C 13.582031 -1.90625 13.34375 -1.6875 13.0625 -1.4375 C 11.570312 -0.425781 9.96875 0.117188 8.25 0.203125 C 3.09375 0.203125 0.515625 -2.363281 0.515625 -7.5 C 0.585938 -8.53125 0.796875 -9.566406 1.140625 -10.609375 C 1.972656 -12.878906 3.457031 -14.628906 5.59375 -15.859375 C 8.007812 -17.117188 10.5 -17.191406 13.0625 -16.078125 C 13.53125 -15.785156 13.863281 -15.582031 14.0625 -15.46875 C 13.039062 -13.289062 12.078125 -11.703125 11.171875 -10.703125 C 10.359375 -11.140625 9.535156 -11.375 8.703125 -11.40625 Z M 8.703125 -11.40625 "/></g></g></g><g fill="#ffffff" fill-opacity="1"><g transform="translate(155.401588, 280.282245)"><g><path d="M 5.890625 -4.71875 C 5.878906 -3.976562 5.867188 -3.234375 5.859375 -2.484375 C 5.859375 -1.734375 5.847656 -0.988281 5.828125 -0.25 C 4.304688 0 2.59375 0.164062 0.6875 0.25 C 0.601562 -1.71875 0.550781 -4.066406 0.53125 -6.796875 C 0.519531 -9.535156 0.53125 -12.675781 0.5625 -16.21875 C 2.414062 -16.5625 4.160156 -16.726562 5.796875 -16.71875 C 5.816406 -15.550781 5.832031 -14.382812 5.84375 -13.21875 C 5.863281 -12.050781 5.878906 -10.867188 5.890625 -9.671875 C 6.296875 -9.710938 6.707031 -9.753906 7.125 -9.796875 C 7.550781 -9.835938 7.992188 -9.878906 8.453125 -9.921875 C 8.453125 -10.992188 8.453125 -12.109375 8.453125 -13.265625 C 8.453125 -14.421875 8.46875 -15.640625 8.5 -16.921875 C 10.332031 -17.273438 12.066406 -17.441406 13.703125 -17.421875 C 13.773438 -14.722656 13.8125 -12.007812 13.8125 -9.28125 C 13.820312 -6.550781 13.800781 -3.773438 13.75 -0.953125 C 12.226562 -0.703125 10.507812 -0.535156 8.59375 -0.453125 C 8.570312 -1.128906 8.550781 -1.835938 8.53125 -2.578125 C 8.519531 -3.316406 8.507812 -4.113281 8.5 -4.96875 C 7.625 -4.851562 6.753906 -4.769531 5.890625 -4.71875 Z M 5.890625 -4.71875 "/></g></g></g><g fill="#009aff" fill-opacity="1"><g transform="translate(175.278703, 280.282245)"><g><path d="M 5.875 -0.1875 C 3.59375 -0.625 1.929688 -2.109375 0.890625 -4.640625 C 0.691406 -5.285156 0.570312 -5.972656 0.53125 -6.703125 C 0.488281 -7.441406 0.523438 -8.234375 0.640625 -9.078125 C 0.859375 -10.628906 1.347656 -11.96875 2.109375 -13.09375 C 3.023438 -14.40625 4.1875 -15.488281 5.59375 -16.34375 C 9.144531 -18.1875 12.425781 -17.929688 15.4375 -15.578125 L 12.640625 -11.15625 C 12.253906 -11.300781 11.851562 -11.4375 11.4375 -11.5625 C 11.03125 -11.6875 10.601562 -11.785156 10.15625 -11.859375 C 8.800781 -12.046875 7.632812 -11.53125 6.65625 -10.3125 C 6.1875 -9.675781 5.941406 -9.015625 5.921875 -8.328125 C 5.796875 -6.921875 6.390625 -5.910156 7.703125 -5.296875 C 9.492188 -5.035156 10.546875 -5.476562 10.859375 -6.625 C 8.835938 -6.457031 7.785156 -6.378906 7.703125 -6.390625 C 7.679688 -7.148438 7.671875 -7.847656 7.671875 -8.484375 C 7.671875 -9.117188 7.691406 -9.695312 7.734375 -10.21875 C 10.453125 -10.5 12.515625 -10.703125 13.921875 -10.828125 C 15.328125 -10.960938 16.09375 -11.015625 16.21875 -10.984375 C 16.25 -10.242188 16.265625 -9.554688 16.265625 -8.921875 C 16.273438 -8.296875 16.273438 -7.691406 16.265625 -7.109375 C 16.265625 -6.472656 16.175781 -5.882812 16 -5.34375 C 14.46875 -1.320312 11.09375 0.394531 5.875 -0.1875 Z M 5.875 -0.1875 "/></g></g></g><g fill="#009aff" fill-opacity="1"><g transform="translate(192.07865, 280.282245)"><g><path d="M 12.21875 -16.90625 C 12.289062 -16.125 12.320312 -15.351562 12.3125 -14.59375 C 12.3125 -13.84375 12.273438 -13.101562 12.203125 -12.375 L 5.484375 -11.734375 L 5.5 -10.140625 L 11.953125 -10.703125 L 11.953125 -6.34375 C 11.828125 -6.320312 11.234375 -6.257812 10.171875 -6.15625 C 9.109375 -6.0625 7.570312 -5.925781 5.5625 -5.75 L 5.59375 -4.25 C 9.75 -4.726562 11.96875 -4.953125 12.25 -4.921875 C 12.375 -3.148438 12.375 -1.675781 12.25 -0.5 C 9.519531 -0.0820312 5.648438 0.25 0.640625 0.5 C 0.566406 -1.976562 0.523438 -4.566406 0.515625 -7.265625 C 0.515625 -9.960938 0.550781 -12.804688 0.625 -15.796875 C 5.0625 -16.410156 8.925781 -16.78125 12.21875 -16.90625 Z M 12.21875 -16.90625 "/></g></g></g><g fill="#009aff" fill-opacity="1"><g transform="translate(204.941427, 280.282245)"><g><path d="M 0.625 -15.96875 L 5.28125 -17.109375 C 6.007812 -16.160156 6.769531 -15.101562 7.5625 -13.9375 C 8.363281 -12.78125 9.21875 -11.492188 10.125 -10.078125 C 10.007812 -11.867188 9.988281 -14.097656 10.0625 -16.765625 C 12.46875 -16.960938 14.210938 -16.953125 15.296875 -16.734375 C 15.460938 -10.710938 15.460938 -5.394531 15.296875 -0.78125 C 14.472656 -0.46875 13.738281 -0.226562 13.09375 -0.0625 C 12.445312 0.101562 11.875 0.179688 11.375 0.171875 C 9.945312 -2.003906 8.054688 -4.597656 5.703125 -7.609375 L 5.703125 0.171875 C 2.960938 0.285156 1.257812 0.265625 0.59375 0.109375 C 0.539062 -2.273438 0.515625 -4.796875 0.515625 -7.453125 C 0.523438 -10.109375 0.5625 -12.945312 0.625 -15.96875 Z M 0.625 -15.96875 "/></g></g></g><g fill="#009aff" fill-opacity="1"><g transform="translate(220.87561, 280.282245)"><g><path d="M 5.796875 -17.03125 C 5.859375 -14.351562 5.894531 -11.648438 5.90625 -8.921875 C 5.914062 -6.191406 5.890625 -3.410156 5.828125 -0.578125 C 4.304688 -0.328125 2.59375 -0.160156 0.6875 -0.078125 C 0.519531 -3.992188 0.476562 -9.484375 0.5625 -16.546875 C 1.488281 -16.734375 2.382812 -16.863281 3.25 -16.9375 C 4.125 -17.007812 4.972656 -17.039062 5.796875 -17.03125 Z M 5.796875 -17.03125 "/></g></g></g><g fill="#009aff" fill-opacity="1"><g transform="translate(227.306999, 280.282245)"><g><path d="M 14.734375 -9.046875 C 14.453125 -4.878906 12.796875 -2.097656 9.765625 -0.703125 C 8.378906 -0.117188 6.9375 0.0546875 5.4375 -0.171875 C 2.96875 -0.785156 1.390625 -3.066406 0.703125 -7.015625 C 0.398438 -10.035156 0.484375 -13.175781 0.953125 -16.4375 C 1.722656 -16.570312 2.488281 -16.679688 3.25 -16.765625 C 4.019531 -16.859375 4.804688 -16.925781 5.609375 -16.96875 C 5.515625 -11.988281 5.6875 -8.789062 6.125 -7.375 C 6.488281 -6.332031 7.015625 -5.859375 7.703125 -5.953125 C 8.503906 -6.078125 9.09375 -6.660156 9.46875 -7.703125 C 9.863281 -9.222656 10.003906 -12.421875 9.890625 -17.296875 C 10.742188 -17.421875 11.566406 -17.515625 12.359375 -17.578125 C 13.148438 -17.640625 13.921875 -17.660156 14.671875 -17.640625 C 14.921875 -14.398438 14.941406 -11.535156 14.734375 -9.046875 Z M 14.734375 -9.046875 "/></g></g></g><g fill="#009aff" fill-opacity="1"><g transform="translate(242.705232, 280.282245)"><g><path d="M 5.25 -5.9375 C 4.238281 -5.9375 3.382812 -6.171875 2.6875 -6.640625 C 1.75 -7.304688 1.175781 -7.972656 0.96875 -8.640625 C 0.332031 -10.640625 0.550781 -12.476562 1.625 -14.15625 C 3.738281 -17.1875 7.550781 -17.757812 13.0625 -15.875 L 12.078125 -11.640625 C 7.546875 -12.617188 5.390625 -12.425781 5.609375 -11.0625 C 5.734375 -10.519531 6.1875 -10.289062 6.96875 -10.375 C 7.320312 -10.414062 7.675781 -10.441406 8.03125 -10.453125 C 8.382812 -10.460938 8.71875 -10.460938 9.03125 -10.453125 C 10.082031 -10.421875 10.941406 -10.179688 11.609375 -9.734375 C 12.554688 -9.085938 13.125 -8.421875 13.3125 -7.734375 C 13.976562 -5.734375 13.757812 -3.894531 12.65625 -2.21875 C 10.507812 0.84375 6.460938 1.375 0.515625 -0.625 L 1.5 -4.796875 C 6.476562 -3.890625 8.878906 -4.0625 8.703125 -5.3125 C 8.578125 -5.851562 8.125 -6.085938 7.34375 -6.015625 C 7 -5.992188 6.65625 -5.972656 6.3125 -5.953125 C 5.96875 -5.941406 5.613281 -5.9375 5.25 -5.9375 Z M 5.25 -5.9375 "/></g></g></g><g fill="#009aff" fill-opacity="1"><g transform="translate(256.907887, 280.282245)"><g><path d="M 12.21875 -16.90625 C 12.289062 -16.125 12.320312 -15.351562 12.3125 -14.59375 C 12.3125 -13.84375 12.273438 -13.101562 12.203125 -12.375 L 5.484375 -11.734375 L 5.5 -10.140625 L 11.953125 -10.703125 L 11.953125 -6.34375 C 11.828125 -6.320312 11.234375 -6.257812 10.171875 -6.15625 C 9.109375 -6.0625 7.570312 -5.925781 5.5625 -5.75 L 5.59375 -4.25 C 9.75 -4.726562 11.96875 -4.953125 12.25 -4.921875 C 12.375 -3.148438 12.375 -1.675781 12.25 -0.5 C 9.519531 -0.0820312 5.648438 0.25 0.640625 0.5 C 0.566406 -1.976562 0.523438 -4.566406 0.515625 -7.265625 C 0.515625 -9.960938 0.550781 -12.804688 0.625 -15.796875 C 5.0625 -16.410156 8.925781 -16.78125 12.21875 -16.90625 Z M 12.21875 -16.90625 "/></g></g></g><g fill="#009aff" fill-opacity="1"><g transform="translate(269.770665, 280.282245)"><g><path d="M 5.25 -5.9375 C 4.238281 -5.9375 3.382812 -6.171875 2.6875 -6.640625 C 1.75 -7.304688 1.175781 -7.972656 0.96875 -8.640625 C 0.332031 -10.640625 0.550781 -12.476562 1.625 -14.15625 C 3.738281 -17.1875 7.550781 -17.757812 13.0625 -15.875 L 12.078125 -11.640625 C 7.546875 -12.617188 5.390625 -12.425781 5.609375 -11.0625 C 5.734375 -10.519531 6.1875 -10.289062 6.96875 -10.375 C 7.320312 -10.414062 7.675781 -10.441406 8.03125 -10.453125 C 8.382812 -10.460938 8.71875 -10.460938 9.03125 -10.453125 C 10.082031 -10.421875 10.941406 -10.179688 11.609375 -9.734375 C 12.554688 -9.085938 13.125 -8.421875 13.3125 -7.734375 C 13.976562 -5.734375 13.757812 -3.894531 12.65625 -2.21875 C 10.507812 0.84375 6.460938 1.375 0.515625 -0.625 L 1.5 -4.796875 C 6.476562 -3.890625 8.878906 -4.0625 8.703125 -5.3125 C 8.578125 -5.851562 8.125 -6.085938 7.34375 -6.015625 C 7 -5.992188 6.65625 -5.972656 6.3125 -5.953125 C 5.96875 -5.941406 5.613281 -5.9375 5.25 -5.9375 Z M 5.25 -5.9375 "/></g></g></g></svg>