<svg xmlns="http://www.w3.org/2000/svg" xmlns:xlink="http://www.w3.org/1999/xlink" width="500" zoomAndPan="magnify" viewBox="0 0 375 374.999991" height="500" preserveAspectRatio="xMidYMid meet" version="1.0"><defs><g/><clipPath id="a9737b58a7"><path d="M 41.390625 147 L 95 147 L 95 258 L 41.390625 258 Z M 41.390625 147 " clip-rule="nonzero"/></clipPath><clipPath id="a6162e565d"><path d="M 277 147.257812 L 329.390625 147.257812 L 329.390625 258 L 277 258 Z M 277 147.257812 " clip-rule="nonzero"/></clipPath><clipPath id="cd92ce6b68"><path d="M 88 29.941406 L 284 29.941406 L 284 91 L 88 91 Z M 88 29.941406 " clip-rule="nonzero"/></clipPath><clipPath id="ad80b579c1"><path d="M 158.160156 303 L 212.75 303 L 212.75 325.441406 L 158.160156 325.441406 Z M 158.160156 303 " clip-rule="nonzero"/></clipPath></defs><rect x="-37.5" width="450" fill="#ffffff" y="-37.499999" height="449.999989" fill-opacity="1"/><rect x="-37.5" width="450" fill="#000000" y="-37.499999" height="449.999989" fill-opacity="1"/><g clip-path="url(#a9737b58a7)"><path fill="#009aff" d="M 94.058594 157.898438 C 94.445312 153.628906 91.933594 149.6875 87.882812 148.277344 C 87.203125 148.046875 86.53125 147.8125 85.855469 147.578125 C 84.320312 147.042969 82.652344 147.246094 81.28125 148.152344 C 79.90625 149.054688 79.019531 150.539062 78.851562 152.210938 C 78.769531 153.0625 78.6875 153.914062 78.605469 154.769531 C 78.605469 154.769531 74.214844 153.363281 66.773438 152.660156 C 61.027344 152.101562 55.820312 156.53125 54.882812 162.726562 C 48.175781 163.242188 42.574219 169.316406 42.21875 177.105469 C 41.433594 194.121094 41.433594 211.160156 42.21875 228.175781 C 42.574219 235.964844 48.175781 242.039062 54.882812 242.554688 C 55.820312 248.75 61.027344 253.179688 66.773438 252.617188 C 74.214844 251.914062 78.605469 250.511719 78.605469 250.511719 C 78.6875 251.363281 78.769531 252.21875 78.851562 253.070312 C 79.019531 254.742188 79.90625 256.222656 81.28125 257.128906 C 82.3125 257.8125 83.515625 258.09375 84.707031 257.964844 C 85.09375 257.921875 85.480469 257.832031 85.855469 257.703125 C 86.53125 257.46875 87.203125 257.234375 87.882812 257 C 91.933594 255.59375 94.445312 251.652344 94.058594 247.382812 C 91.347656 217.617188 91.347656 187.664062 94.058594 157.898438 " fill-opacity="1" fill-rule="nonzero"/></g><g clip-path="url(#a6162e565d)"><path fill="#009aff" d="M 328.878906 177.105469 C 328.523438 169.316406 322.921875 163.242188 316.214844 162.726562 C 315.277344 156.53125 310.066406 152.101562 304.324219 152.660156 C 296.882812 153.363281 292.492188 154.769531 292.492188 154.769531 C 292.414062 153.914062 292.328125 153.0625 292.246094 152.210938 C 292.078125 150.539062 291.191406 149.054688 289.816406 148.152344 C 288.785156 147.46875 287.578125 147.1875 286.390625 147.320312 C 286.003906 147.359375 285.617188 147.445312 285.242188 147.578125 C 284.566406 147.8125 283.890625 148.046875 283.214844 148.277344 C 279.160156 149.6875 276.652344 153.628906 277.039062 157.898438 C 279.746094 187.664062 279.746094 217.617188 277.039062 247.382812 C 276.652344 251.652344 279.160156 255.59375 283.214844 257 C 283.890625 257.234375 284.566406 257.46875 285.242188 257.703125 C 286.777344 258.238281 288.445312 258.03125 289.816406 257.128906 C 291.191406 256.222656 292.078125 254.742188 292.246094 253.070312 C 292.328125 252.21875 292.414062 251.363281 292.492188 250.511719 C 292.492188 250.511719 296.882812 251.914062 304.324219 252.617188 C 310.066406 253.179688 315.277344 248.75 316.214844 242.554688 C 322.921875 242.039062 328.523438 235.964844 328.878906 228.175781 C 329.664062 211.160156 329.664062 194.121094 328.878906 177.105469 " fill-opacity="1" fill-rule="nonzero"/></g><path fill="#009aff" d="M 303.511719 156.566406 L 299.574219 156.566406 C 299.574219 130.898438 291.25 106.667969 275.5 86.488281 L 278.605469 84.066406 C 286.519531 94.207031 292.675781 105.476562 296.910156 117.566406 C 301.289062 130.070312 303.511719 143.191406 303.511719 156.566406 " fill-opacity="1" fill-rule="nonzero"/><path fill="#009aff" d="M 71.523438 156.566406 L 67.585938 156.566406 C 67.585938 143.191406 69.808594 130.070312 74.1875 117.5625 C 78.421875 105.476562 84.582031 94.203125 92.492188 84.0625 L 95.597656 86.484375 C 79.847656 106.667969 71.523438 130.902344 71.523438 156.566406 " fill-opacity="1" fill-rule="nonzero"/><g clip-path="url(#cd92ce6b68)"><path fill="#009aff" d="M 281.152344 73.535156 C 279.222656 71.316406 277.179688 69.128906 275.082031 67.03125 C 263.453125 55.402344 249.914062 46.273438 234.835938 39.898438 C 219.214844 33.292969 202.632812 29.941406 185.546875 29.941406 C 168.460938 29.941406 151.878906 33.292969 136.257812 39.898438 C 121.179688 46.269531 107.640625 55.398438 96.011719 67.027344 C 93.917969 69.121094 91.882812 71.304688 89.957031 73.515625 C 87.226562 76.648438 87.394531 81.410156 90.335938 84.351562 L 94.175781 88.195312 C 95.664062 89.679688 97.695312 90.519531 99.789062 90.519531 C 99.882812 90.519531 99.980469 90.515625 100.074219 90.511719 C 102.28125 90.433594 104.375 89.425781 105.820312 87.753906 C 125.894531 64.523438 154.957031 51.199219 185.546875 51.199219 C 216.136719 51.199219 245.199219 64.523438 265.273438 87.753906 C 266.71875 89.425781 268.816406 90.433594 271.019531 90.511719 C 273.210938 90.59375 275.363281 89.746094 276.917969 88.195312 L 280.761719 84.351562 C 283.699219 81.414062 283.871094 76.660156 281.152344 73.535156 " fill-opacity="1" fill-rule="nonzero"/></g><path fill="#009aff" d="M 237.851562 316.234375 L 212.328125 316.234375 L 212.328125 312.296875 L 237.851562 312.296875 C 271.886719 312.296875 299.574219 284.609375 299.574219 250.578125 L 303.511719 250.578125 C 303.511719 268.113281 296.679688 284.601562 284.28125 297.003906 C 271.878906 309.40625 255.390625 316.234375 237.851562 316.234375 " fill-opacity="1" fill-rule="nonzero"/><g clip-path="url(#ad80b579c1)"><path fill="#009aff" d="M 210 308.222656 L 207.335938 305.871094 C 205.261719 304.042969 202.597656 303.039062 199.835938 303.039062 L 169.59375 303.039062 C 163.402344 303.039062 158.367188 308.074219 158.367188 314.265625 C 158.367188 320.457031 163.402344 325.496094 169.59375 325.496094 L 199.835938 325.496094 C 202.597656 325.496094 205.261719 324.488281 207.335938 322.660156 L 210.003906 320.3125 C 211.738281 318.78125 212.734375 316.578125 212.734375 314.265625 C 212.734375 311.953125 211.738281 309.75 210 308.222656 " fill-opacity="1" fill-rule="nonzero"/></g><path stroke-linecap="butt" transform="matrix(1.035879, 0, 0, 1.035879, 30.786876, -52.999998)" fill="none" stroke-linejoin="miter" d="M 157.801357 141.685968 C 158.936413 141.685968 160.116721 142.063063 161.34228 142.821024 C 162.571611 143.669488 163.657645 144.615997 164.604154 145.65678 C 165.452618 146.693792 166.161557 147.828848 166.730971 149.058178 C 167.296613 150.09519 167.485161 151.08695 167.296613 152.033459 L 137.392966 288.511745 C 137.298692 289.269706 136.684027 290.261466 135.548971 291.487025 C 134.606233 292.716356 133.376902 293.851412 131.864751 294.888424 C 131.11056 295.457838 130.378996 295.951832 129.670057 296.37795 C 128.961118 296.804067 128.229553 297.252811 127.471592 297.72418 C 125.770893 298.482141 124.447289 298.859236 123.504551 298.859236 L 28.265394 298.859236 L 57.88622 163.655533 L 41.162049 141.685968 Z M 95.584424 172.015733 L 74.467094 268.529471 L 102.387221 268.529471 L 123.504551 172.015733 Z M 95.584424 172.015733 " stroke="#000000" stroke-width="11.247381" stroke-opacity="1" stroke-miterlimit="4"/><g fill="#ffffff" fill-opacity="1"><g transform="translate(60.066646, 256.727846)"><g><path d="M 134.171875 -162.953125 C 135.347656 -162.953125 136.570312 -162.5625 137.84375 -161.78125 C 139.125 -160.894531 140.25 -159.914062 141.21875 -158.84375 C 142.101562 -157.769531 142.835938 -156.59375 143.421875 -155.3125 C 144.015625 -154.238281 144.210938 -153.210938 144.015625 -152.234375 L 113.046875 -10.859375 C 112.941406 -10.078125 112.300781 -9.050781 111.125 -7.78125 C 110.144531 -6.507812 108.875 -5.332031 107.3125 -4.25 C 106.53125 -3.664062 105.769531 -3.15625 105.03125 -2.71875 C 104.300781 -2.28125 103.546875 -1.816406 102.765625 -1.328125 C 101.003906 -0.535156 99.632812 -0.140625 98.65625 -0.140625 L 0 -0.140625 L 30.6875 -140.203125 L 13.359375 -162.953125 Z M 69.734375 -131.53125 L 47.859375 -31.5625 L 76.78125 -31.5625 L 98.65625 -131.53125 Z M 69.734375 -131.53125 "/></g></g></g><path stroke-linecap="butt" transform="matrix(1.035879, 0, 0, 1.035879, 166.735378, -52.999998)" fill="none" stroke-linejoin="miter" d="M 129.527453 229.413389 L 114.360685 298.859236 L 19.125299 298.859236 C 17.990242 298.859236 16.809934 298.482141 15.580604 297.72418 C 14.351274 296.875716 13.26524 295.929207 12.322502 294.888424 C 11.470267 293.945686 10.761328 292.81063 10.195685 291.487025 C 9.626271 290.450014 9.437724 289.458253 9.626271 288.511745 L 41.800031 141.685968 L 137.039188 141.685968 C 138.170474 141.685968 139.350782 142.063063 140.580112 142.821024 C 141.809442 143.669488 142.895476 144.615997 143.841985 145.65678 C 144.69045 146.693792 145.399388 147.828848 145.965031 149.058178 C 146.534445 150.09519 146.722993 151.08695 146.534445 152.033459 L 135.760836 201.067145 L 100.898387 179.527468 L 102.599086 172.015733 L 74.535663 172.015733 L 67.876163 202.202201 L 38.255337 202.202201 L 62.208422 228.138807 L 53.422105 268.529471 L 81.481757 268.529471 L 88.001732 238.625824 L 81.764578 238.625824 L 53.844451 208.296059 L 107.840709 208.296059 Z M 129.527453 229.413389 " stroke="#000000" stroke-width="11.247381" stroke-opacity="1" stroke-miterlimit="4"/><g fill="#009aff" fill-opacity="1"><g transform="translate(174.21313, 256.727846)"><g><path d="M 126.6875 -72.078125 L 110.984375 -0.140625 L 12.328125 -0.140625 C 11.148438 -0.140625 9.925781 -0.535156 8.65625 -1.328125 C 7.382812 -2.203125 6.257812 -3.175781 5.28125 -4.25 C 4.40625 -5.226562 3.671875 -6.40625 3.078125 -7.78125 C 2.492188 -8.851562 2.300781 -9.878906 2.5 -10.859375 L 35.828125 -162.953125 L 134.46875 -162.953125 C 135.644531 -162.953125 136.867188 -162.5625 138.140625 -161.78125 C 139.410156 -160.894531 140.535156 -159.914062 141.515625 -158.84375 C 142.398438 -157.769531 143.132812 -156.59375 143.71875 -155.3125 C 144.3125 -154.238281 144.507812 -153.210938 144.3125 -152.234375 L 133.15625 -101.4375 L 97.03125 -123.75 L 98.796875 -131.53125 L 69.734375 -131.53125 L 62.828125 -100.265625 L 32.15625 -100.265625 L 56.953125 -73.40625 L 47.859375 -31.5625 L 76.921875 -31.5625 L 83.671875 -62.53125 L 77.21875 -62.53125 L 48.296875 -93.953125 L 104.234375 -93.953125 Z M 126.6875 -72.078125 "/></g></g></g></svg>