<svg xmlns="http://www.w3.org/2000/svg" xmlns:xlink="http://www.w3.org/1999/xlink" width="500" zoomAndPan="magnify" viewBox="0 0 375 374.999991" height="500" preserveAspectRatio="xMidYMid meet" version="1.0"><defs><g/><clipPath id="083a15ed00"><path d="M 5.507812 182 L 33 182 L 33 240 L 5.507812 240 Z M 5.507812 182 " clip-rule="nonzero"/></clipPath><clipPath id="9ab76c9880"><path d="M 127.8125 182.289062 L 155.183594 182.289062 L 155.183594 239.832031 L 127.8125 239.832031 Z M 127.8125 182.289062 " clip-rule="nonzero"/></clipPath><clipPath id="9a580d6125"><path d="M 29 121.335938 L 132 121.335938 L 132 153 L 29 153 Z M 29 121.335938 " clip-rule="nonzero"/></clipPath><clipPath id="612a97586a"><path d="M 66.179688 263.148438 L 94.542969 263.148438 L 94.542969 274.890625 L 66.179688 274.890625 Z M 66.179688 263.148438 " clip-rule="nonzero"/></clipPath></defs><rect x="-37.5" width="450" fill="#ffffff" y="-37.499999" height="449.999989" fill-opacity="1"/><rect x="-37.5" width="450" fill="#000000" y="-37.499999" height="449.999989" fill-opacity="1"/><g clip-path="url(#083a15ed00)"><path fill="#009aff" d="M 32.878906 187.816406 C 33.078125 185.597656 31.773438 183.550781 29.667969 182.816406 C 29.316406 182.695312 28.964844 182.574219 28.617188 182.453125 C 27.816406 182.175781 26.953125 182.28125 26.238281 182.753906 C 25.523438 183.222656 25.066406 183.992188 24.976562 184.859375 C 24.933594 185.304688 24.890625 185.746094 24.847656 186.191406 C 24.847656 186.191406 22.570312 185.460938 18.703125 185.09375 C 15.71875 184.804688 13.011719 187.105469 12.523438 190.324219 C 9.039062 190.589844 6.128906 193.75 5.945312 197.796875 C 5.535156 206.636719 5.535156 215.488281 5.945312 224.328125 C 6.128906 228.375 9.039062 231.53125 12.523438 231.796875 C 13.011719 235.019531 15.71875 237.320312 18.703125 237.027344 C 22.570312 236.664062 24.847656 235.933594 24.847656 235.933594 C 24.890625 236.375 24.933594 236.820312 24.976562 237.261719 C 25.066406 238.132812 25.523438 238.902344 26.238281 239.371094 C 26.773438 239.726562 27.402344 239.875 28.019531 239.804688 C 28.21875 239.78125 28.421875 239.738281 28.617188 239.671875 C 28.964844 239.546875 29.316406 239.425781 29.667969 239.304688 C 31.773438 238.574219 33.078125 236.527344 32.878906 234.308594 C 31.46875 218.84375 31.46875 203.28125 32.878906 187.816406 " fill-opacity="1" fill-rule="nonzero"/></g><g clip-path="url(#9ab76c9880)"><path fill="#009aff" d="M 154.878906 197.796875 C 154.695312 193.75 151.78125 190.589844 148.296875 190.324219 C 147.8125 187.105469 145.105469 184.804688 142.121094 185.09375 C 138.253906 185.460938 135.972656 186.191406 135.972656 186.191406 C 135.933594 185.746094 135.890625 185.304688 135.84375 184.859375 C 135.757812 183.992188 135.296875 183.222656 134.585938 182.753906 C 134.046875 182.398438 133.421875 182.25 132.804688 182.320312 C 132.601562 182.339844 132.402344 182.386719 132.207031 182.453125 C 131.855469 182.574219 131.503906 182.695312 131.152344 182.816406 C 129.046875 183.550781 127.746094 185.597656 127.945312 187.816406 C 129.351562 203.28125 129.351562 218.84375 127.945312 234.308594 C 127.746094 236.527344 129.046875 238.574219 131.152344 239.304688 C 131.503906 239.425781 131.855469 239.546875 132.207031 239.671875 C 133.003906 239.949219 133.871094 239.839844 134.585938 239.371094 C 135.296875 238.902344 135.757812 238.132812 135.84375 237.261719 C 135.890625 236.820312 135.933594 236.375 135.972656 235.933594 C 135.972656 235.933594 138.253906 236.664062 142.121094 237.027344 C 145.105469 237.320312 147.8125 235.019531 148.296875 231.796875 C 151.78125 231.53125 154.695312 228.375 154.878906 224.328125 C 155.285156 215.488281 155.285156 206.636719 154.878906 197.796875 " fill-opacity="1" fill-rule="nonzero"/></g><path fill="#009aff" d="M 141.699219 187.125 L 139.652344 187.125 C 139.652344 173.789062 135.328125 161.199219 127.144531 150.714844 L 128.757812 149.457031 C 132.871094 154.726562 136.070312 160.582031 138.269531 166.863281 C 140.542969 173.359375 141.699219 180.175781 141.699219 187.125 " fill-opacity="1" fill-rule="nonzero"/><path fill="#009aff" d="M 21.167969 187.125 L 19.125 187.125 C 19.125 180.175781 20.277344 173.359375 22.554688 166.859375 C 24.753906 160.578125 27.953125 154.722656 32.066406 149.457031 L 33.675781 150.714844 C 25.496094 161.199219 21.167969 173.789062 21.167969 187.125 " fill-opacity="1" fill-rule="nonzero"/><g clip-path="url(#9a580d6125)"><path fill="#009aff" d="M 130.082031 143.984375 C 129.078125 142.832031 128.019531 141.695312 126.929688 140.605469 C 120.886719 134.566406 113.851562 129.820312 106.019531 126.507812 C 97.902344 123.078125 89.289062 121.335938 80.410156 121.335938 C 71.535156 121.335938 62.917969 123.078125 54.800781 126.507812 C 46.96875 129.820312 39.933594 134.5625 33.890625 140.605469 C 32.804688 141.691406 31.746094 142.828125 30.746094 143.972656 C 29.328125 145.605469 29.414062 148.078125 30.941406 149.605469 L 32.9375 151.601562 C 33.710938 152.375 34.765625 152.808594 35.855469 152.808594 C 35.90625 152.808594 35.953125 152.808594 36.003906 152.804688 C 37.148438 152.765625 38.238281 152.242188 38.988281 151.371094 C 49.417969 139.304688 64.515625 132.382812 80.410156 132.382812 C 96.304688 132.382812 111.402344 139.304688 121.832031 151.371094 C 122.582031 152.242188 123.671875 152.765625 124.816406 152.804688 C 125.957031 152.847656 127.074219 152.410156 127.882812 151.601562 L 129.878906 149.605469 C 131.40625 148.078125 131.496094 145.609375 130.082031 143.984375 " fill-opacity="1" fill-rule="nonzero"/></g><path fill="#009aff" d="M 107.585938 270.078125 L 94.324219 270.078125 L 94.324219 268.035156 L 107.585938 268.035156 C 125.265625 268.035156 139.652344 253.648438 139.652344 235.96875 L 141.699219 235.96875 C 141.699219 245.078125 138.148438 253.644531 131.707031 260.085938 C 125.265625 266.53125 116.699219 270.078125 107.585938 270.078125 " fill-opacity="1" fill-rule="nonzero"/><g clip-path="url(#612a97586a)"><path fill="#009aff" d="M 93.117188 265.917969 L 91.730469 264.695312 C 90.652344 263.746094 89.269531 263.222656 87.835938 263.222656 L 72.121094 263.222656 C 68.90625 263.222656 66.289062 265.839844 66.289062 269.058594 C 66.289062 272.273438 68.90625 274.890625 72.121094 274.890625 L 87.835938 274.890625 C 89.269531 274.890625 90.652344 274.367188 91.730469 273.417969 L 93.117188 272.195312 C 94.019531 271.402344 94.535156 270.257812 94.535156 269.058594 C 94.535156 267.855469 94.019531 266.710938 93.117188 265.917969 " fill-opacity="1" fill-rule="nonzero"/></g><path stroke-linecap="butt" transform="matrix(0.538217, 0, 0, 0.538217, 0.0000045, 78.241958)" fill="none" stroke-linejoin="miter" d="M 157.798258 141.68646 C 158.937727 141.68646 160.113484 142.063864 161.347304 142.818671 C 162.573865 143.66783 163.66253 144.618596 164.606039 145.656456 C 165.455197 146.694316 166.1592 147.826527 166.732563 149.053089 C 167.298669 150.098207 167.48737 151.085263 167.298669 152.036029 L 137.389431 288.51099 C 137.29508 289.265798 136.685428 290.260111 135.553217 291.486673 C 134.60245 292.720492 133.375888 293.852703 131.866274 294.890563 C 131.111466 295.456669 130.378432 295.950197 129.667172 296.378405 C 128.963169 296.806612 128.230135 297.249336 127.475327 297.721091 C 125.769753 298.483156 124.448841 298.860559 123.505331 298.860559 L 28.268976 298.860559 L 57.887903 163.655707 L 41.166019 141.68646 Z M 95.58472 172.016649 L 74.464632 268.530371 L 102.385243 268.530371 L 123.505331 172.016649 Z M 95.58472 172.016649 " stroke="#000000" stroke-width="11.247381" stroke-opacity="1" stroke-miterlimit="4"/><g fill="#ffffff" fill-opacity="1"><g transform="translate(15.21304, 239.168799)"><g><path d="M 69.71875 -84.671875 C 70.332031 -84.671875 70.96875 -84.46875 71.625 -84.0625 C 72.289062 -83.601562 72.875 -83.09375 73.375 -82.53125 C 73.832031 -81.96875 74.21875 -81.359375 74.53125 -80.703125 C 74.832031 -80.140625 74.929688 -79.601562 74.828125 -79.09375 L 58.734375 -5.640625 C 58.679688 -5.234375 58.351562 -4.703125 57.75 -4.046875 C 57.238281 -3.378906 56.578125 -2.769531 55.765625 -2.21875 C 55.359375 -1.90625 54.960938 -1.632812 54.578125 -1.40625 C 54.191406 -1.175781 53.796875 -0.9375 53.390625 -0.6875 C 52.472656 -0.28125 51.765625 -0.078125 51.265625 -0.078125 L 0 -0.078125 L 15.9375 -72.84375 L 6.9375 -84.671875 Z M 36.234375 -68.34375 L 24.859375 -16.40625 L 39.890625 -16.40625 L 51.265625 -68.34375 Z M 36.234375 -68.34375 "/></g></g></g><path stroke-linecap="butt" transform="matrix(0.538217, 0, 0, 0.538217, 70.635446, 78.241958)" fill="none" stroke-linejoin="miter" d="M 129.524389 229.411032 L 114.362924 298.860559 L 19.126568 298.860559 C 17.987099 298.860559 16.811342 298.483156 15.577522 297.721091 C 14.35096 296.871932 13.262296 295.928423 12.318787 294.890563 C 11.469629 293.947054 10.758368 292.814843 10.192262 291.486673 C 9.626157 290.448813 9.437455 289.454499 9.626157 288.51099 L 41.799817 141.68646 L 137.036173 141.68646 C 138.168384 141.68646 139.351399 142.063864 140.577961 142.818671 C 141.81178 143.66783 142.893187 144.618596 143.843954 145.656456 C 144.693112 146.694316 145.397115 147.826527 145.96322 149.053089 C 146.536584 150.098207 146.725285 151.085263 146.536584 152.036029 L 135.758807 201.069471 L 100.899775 179.528433 L 102.598091 172.016649 L 74.539582 172.016649 L 67.876957 202.201682 L 38.258029 202.201682 L 62.208644 228.140924 L 53.419494 268.530371 L 81.485261 268.530371 L 88.002731 238.62839 L 81.768313 238.62839 L 53.847702 208.298202 L 107.845453 208.298202 Z M 129.524389 229.411032 " stroke="#000000" stroke-width="11.247381" stroke-opacity="1" stroke-miterlimit="4"/><g fill="#009aff" fill-opacity="1"><g transform="translate(74.520699, 239.168799)"><g><path d="M 65.828125 -37.453125 L 57.671875 -0.078125 L 6.40625 -0.078125 C 5.789062 -0.078125 5.15625 -0.28125 4.5 -0.6875 C 3.84375 -1.144531 3.257812 -1.65625 2.75 -2.21875 C 2.289062 -2.71875 1.910156 -3.328125 1.609375 -4.046875 C 1.296875 -4.597656 1.191406 -5.128906 1.296875 -5.640625 L 18.609375 -84.671875 L 69.875 -84.671875 C 70.476562 -84.671875 71.113281 -84.46875 71.78125 -84.0625 C 72.4375 -83.601562 73.019531 -83.09375 73.53125 -82.53125 C 73.988281 -81.96875 74.367188 -81.359375 74.671875 -80.703125 C 74.984375 -80.140625 75.085938 -79.601562 74.984375 -79.09375 L 69.1875 -52.703125 L 50.421875 -64.296875 L 51.328125 -68.34375 L 36.234375 -68.34375 L 32.640625 -52.09375 L 16.703125 -52.09375 L 29.59375 -38.140625 L 24.859375 -16.40625 L 39.96875 -16.40625 L 43.484375 -32.5 L 40.125 -32.5 L 25.09375 -48.8125 L 54.15625 -48.8125 Z M 65.828125 -37.453125 "/></g></g></g><g fill="#ffffff" fill-opacity="1"><g transform="translate(158.081327, 190.099717)"><g><path d="M 1.234375 -29.21875 C 2.804688 -30.1875 5.96875 -30.929688 10.71875 -31.453125 C 15.851562 -32.023438 20.050781 -30.546875 23.3125 -27.015625 C 24.78125 -25.421875 25.613281 -22.753906 25.8125 -19.015625 C 25.738281 -13.285156 24.394531 -8.941406 21.78125 -5.984375 C 19.164062 -3.066406 15.429688 -1.234375 10.578125 -0.484375 C 7.390625 -0.0351562 4.320312 -0.0859375 1.375 -0.640625 C 1.101562 -5.347656 0.953125 -10.066406 0.921875 -14.796875 C 0.898438 -19.523438 1.003906 -24.332031 1.234375 -29.21875 Z M 9.453125 -9.859375 C 13.015625 -9.929688 15.40625 -11.140625 16.625 -13.484375 C 17.46875 -16.222656 17.269531 -18.613281 16.03125 -20.65625 C 14.882812 -22.03125 12.679688 -22.457031 9.421875 -21.9375 C 9.367188 -19.863281 9.347656 -17.820312 9.359375 -15.8125 C 9.367188 -13.8125 9.398438 -11.828125 9.453125 -9.859375 Z M 9.453125 -9.859375 "/></g></g></g><g fill="#ffffff" fill-opacity="1"><g transform="translate(184.832983, 190.099717)"><g><path d="M 10.5 -30.859375 C 10.625 -26.003906 10.691406 -21.101562 10.703125 -16.15625 C 10.710938 -11.21875 10.671875 -6.179688 10.578125 -1.046875 C 7.804688 -0.597656 4.691406 -0.300781 1.234375 -0.15625 C 0.929688 -7.25 0.859375 -17.195312 1.015625 -30 C 2.703125 -30.320312 4.328125 -30.550781 5.890625 -30.6875 C 7.460938 -30.820312 9 -30.878906 10.5 -30.859375 Z M 10.5 -30.859375 "/></g></g></g><g fill="#ffffff" fill-opacity="1"><g transform="translate(196.49013, 190.099717)"><g><path d="M 9.53125 -10.765625 C 7.6875 -10.765625 6.128906 -11.1875 4.859375 -12.03125 C 3.160156 -13.25 2.125 -14.457031 1.75 -15.65625 C 0.601562 -19.289062 1.003906 -22.628906 2.953125 -25.671875 C 6.785156 -31.148438 13.695312 -32.179688 23.6875 -28.765625 L 21.890625 -21.109375 C 13.671875 -22.878906 9.757812 -22.53125 10.15625 -20.0625 C 10.382812 -19.0625 11.207031 -18.640625 12.625 -18.796875 C 13.269531 -18.867188 13.910156 -18.914062 14.546875 -18.9375 C 15.179688 -18.96875 15.785156 -18.96875 16.359375 -18.9375 C 18.273438 -18.894531 19.832031 -18.460938 21.03125 -17.640625 C 22.75 -16.460938 23.785156 -15.253906 24.140625 -14.015625 C 25.328125 -10.398438 24.925781 -7.070312 22.9375 -4.03125 C 19.050781 1.519531 11.71875 2.488281 0.9375 -1.125 L 2.734375 -8.703125 C 11.742188 -7.054688 16.085938 -7.367188 15.765625 -9.640625 C 15.546875 -10.609375 14.722656 -11.03125 13.296875 -10.90625 C 12.671875 -10.851562 12.046875 -10.816406 11.421875 -10.796875 C 10.804688 -10.773438 10.175781 -10.765625 9.53125 -10.765625 Z M 9.53125 -10.765625 "/></g></g></g><g fill="#ffffff" fill-opacity="1"><g transform="translate(222.233003, 190.099717)"><g><path d="M 8.8125 -29.671875 C 12.101562 -30.066406 15.03125 -30.066406 17.59375 -29.671875 C 22.800781 -28.617188 25.476562 -25.117188 25.625 -19.171875 C 25.53125 -12.367188 22.332031 -7.945312 16.03125 -5.90625 C 14.601562 -5.476562 12.769531 -5.226562 10.53125 -5.15625 C 10.53125 -4.28125 10.523438 -3.390625 10.515625 -2.484375 C 10.503906 -1.578125 10.5 -0.648438 10.5 0.296875 C 9.226562 0.546875 7.816406 0.738281 6.265625 0.875 C 4.722656 1.007812 3.046875 1.101562 1.234375 1.15625 C 1.054688 -4.25 0.96875 -9.40625 0.96875 -14.3125 C 0.96875 -19.21875 1.03125 -23.910156 1.15625 -28.390625 C 1.632812 -28.765625 4.1875 -29.191406 8.8125 -29.671875 Z M 10.578125 -13.078125 C 14.484375 -13.453125 16.625 -14.625 17 -16.59375 C 17.300781 -18.851562 16.828125 -20.347656 15.578125 -21.078125 C 14.609375 -21.597656 12.914062 -21.644531 10.5 -21.21875 C 10.519531 -19.945312 10.535156 -18.632812 10.546875 -17.28125 C 10.566406 -15.925781 10.578125 -14.523438 10.578125 -13.078125 Z M 10.578125 -13.078125 "/></g></g></g><g fill="#ffffff" fill-opacity="1"><g transform="translate(248.797855, 190.099717)"><g><path d="M 11.140625 -3.625 C 11.015625 -3.050781 10.890625 -2.488281 10.765625 -1.9375 C 10.640625 -1.394531 10.515625 -0.835938 10.390625 -0.265625 C 5.828125 0.0351562 2.675781 -0.160156 0.9375 -0.859375 C 2.945312 -8.410156 4.65625 -14.660156 6.0625 -19.609375 C 7.476562 -24.566406 8.597656 -28.28125 9.421875 -30.75 C 13.148438 -31.59375 16.535156 -31.90625 19.578125 -31.6875 C 21.296875 -27.269531 22.976562 -22.703125 24.625 -17.984375 C 26.269531 -13.265625 27.890625 -8.328125 29.484375 -3.171875 C 27.960938 -2.304688 24.722656 -1.570312 19.765625 -0.96875 C 19.585938 -1.539062 19.421875 -2.097656 19.265625 -2.640625 C 19.117188 -3.191406 18.960938 -3.734375 18.796875 -4.265625 C 17.742188 -4.179688 16.585938 -4.082031 15.328125 -3.96875 C 14.078125 -3.863281 12.679688 -3.75 11.140625 -3.625 Z M 16.515625 -11.84375 C 16.140625 -13.09375 15.796875 -14.207031 15.484375 -15.1875 C 15.171875 -16.164062 14.878906 -17.019531 14.609375 -17.75 C 14.335938 -16.695312 14.066406 -15.660156 13.796875 -14.640625 C 13.535156 -13.617188 13.269531 -12.585938 13 -11.546875 Z M 16.515625 -11.84375 "/></g></g></g><g fill="#ffffff" fill-opacity="1"><g transform="translate(279.211052, 190.099717)"><g><path d="M 18.796875 -21.8125 C 18.847656 -17.257812 18.875 -13.242188 18.875 -9.765625 C 18.875 -6.296875 18.820312 -3.335938 18.71875 -0.890625 C 16.53125 -0.546875 14.65625 -0.3125 13.09375 -0.1875 C 11.539062 -0.0625 10.273438 -0.0507812 9.296875 -0.15625 C 9.253906 -3.46875 9.21875 -6.847656 9.1875 -10.296875 C 9.164062 -13.742188 9.179688 -17.3125 9.234375 -21 C 6.785156 -20.769531 4.09375 -20.546875 1.15625 -20.328125 C 1.03125 -21.617188 0.960938 -23.003906 0.953125 -24.484375 C 0.941406 -25.972656 1 -27.5625 1.125 -29.25 C 5.65625 -29.769531 10.082031 -30.226562 14.40625 -30.625 C 18.726562 -31.03125 22.992188 -31.367188 27.203125 -31.640625 C 27.328125 -28.898438 27.289062 -25.925781 27.09375 -22.71875 C 26.4375 -22.5625 23.671875 -22.257812 18.796875 -21.8125 Z M 18.796875 -21.8125 "/></g></g></g><g fill="#ffffff" fill-opacity="1"><g transform="translate(307.41986, 190.099717)"><g><path d="M 15.765625 -20.65625 C 13.703125 -20.507812 12.007812 -19.238281 10.6875 -16.84375 C 9.789062 -14.757812 9.960938 -12.816406 11.203125 -11.015625 C 12.328125 -9.648438 13.910156 -9.117188 15.953125 -9.421875 C 17.648438 -9.835938 19.316406 -10.632812 20.953125 -11.8125 C 22.222656 -10.632812 23.867188 -8.28125 25.890625 -4.75 C 25.671875 -4.46875 25.375 -4.148438 25 -3.796875 C 24.625 -3.453125 24.1875 -3.054688 23.6875 -2.609375 C 20.96875 -0.765625 18.050781 0.226562 14.9375 0.375 C 5.601562 0.375 0.9375 -4.28125 0.9375 -13.59375 C 1.0625 -15.46875 1.4375 -17.347656 2.0625 -19.234375 C 3.570312 -23.347656 6.257812 -26.515625 10.125 -28.734375 C 14.507812 -31.023438 19.03125 -31.160156 23.6875 -29.140625 C 24.53125 -28.617188 25.128906 -28.242188 25.484375 -28.015625 C 23.640625 -24.085938 21.894531 -21.210938 20.25 -19.390625 C 18.78125 -20.191406 17.285156 -20.613281 15.765625 -20.65625 Z M 15.765625 -20.65625 "/></g></g></g><g fill="#ffffff" fill-opacity="1"><g transform="translate(334.246242, 190.099717)"><g><path d="M 10.6875 -8.5625 C 10.65625 -7.207031 10.632812 -5.851562 10.625 -4.5 C 10.613281 -3.144531 10.597656 -1.796875 10.578125 -0.453125 C 7.804688 -0.00390625 4.691406 0.296875 1.234375 0.453125 C 1.085938 -3.109375 1 -7.367188 0.96875 -12.328125 C 0.945312 -17.285156 0.960938 -22.976562 1.015625 -29.40625 C 4.367188 -30.03125 7.53125 -30.328125 10.5 -30.296875 C 10.550781 -28.179688 10.585938 -26.0625 10.609375 -23.9375 C 10.628906 -21.820312 10.65625 -19.679688 10.6875 -17.515625 C 11.40625 -17.597656 12.148438 -17.675781 12.921875 -17.75 C 13.691406 -17.820312 14.488281 -17.894531 15.3125 -17.96875 C 15.3125 -19.914062 15.3125 -21.941406 15.3125 -24.046875 C 15.3125 -26.148438 15.335938 -28.359375 15.390625 -30.671875 C 18.734375 -31.316406 21.882812 -31.613281 24.84375 -31.5625 C 24.96875 -26.6875 25.035156 -21.773438 25.046875 -16.828125 C 25.054688 -11.890625 25.015625 -6.851562 24.921875 -1.71875 C 22.148438 -1.269531 19.035156 -0.972656 15.578125 -0.828125 C 15.523438 -2.046875 15.488281 -3.328125 15.46875 -4.671875 C 15.445312 -6.015625 15.421875 -7.457031 15.390625 -9 C 13.816406 -8.800781 12.25 -8.65625 10.6875 -8.5625 Z M 10.6875 -8.5625 "/></g></g></g><g fill="#009aff" fill-opacity="1"><g transform="translate(160.663389, 229.538406)"><g><path d="M 10.640625 -0.34375 C 6.515625 -1.132812 3.503906 -3.820312 1.609375 -8.40625 C 1.253906 -9.570312 1.039062 -10.820312 0.96875 -12.15625 C 0.894531 -13.488281 0.957031 -14.914062 1.15625 -16.4375 C 1.550781 -19.25 2.4375 -21.675781 3.8125 -23.71875 C 5.476562 -26.113281 7.582031 -28.082031 10.125 -29.625 C 16.570312 -32.96875 22.523438 -32.507812 27.984375 -28.25 L 22.90625 -20.21875 C 22.207031 -20.488281 21.484375 -20.734375 20.734375 -20.953125 C 19.984375 -21.179688 19.210938 -21.359375 18.421875 -21.484375 C 15.953125 -21.828125 13.832031 -20.894531 12.0625 -18.6875 C 11.21875 -17.539062 10.769531 -16.34375 10.71875 -15.09375 C 10.5 -12.550781 11.582031 -10.722656 13.96875 -9.609375 C 17.207031 -9.128906 19.113281 -9.925781 19.6875 -12 C 16.03125 -11.695312 14.125 -11.554688 13.96875 -11.578125 C 13.914062 -12.953125 13.890625 -14.21875 13.890625 -15.375 C 13.890625 -16.53125 13.929688 -17.582031 14.015625 -18.53125 C 18.941406 -19.03125 22.679688 -19.394531 25.234375 -19.625 C 27.785156 -19.863281 29.175781 -19.957031 29.40625 -19.90625 C 29.457031 -18.5625 29.488281 -17.316406 29.5 -16.171875 C 29.507812 -15.023438 29.503906 -13.929688 29.484375 -12.890625 C 29.484375 -11.742188 29.320312 -10.671875 29 -9.671875 C 26.226562 -2.398438 20.109375 0.707031 10.640625 -0.34375 Z M 10.640625 -0.34375 "/></g></g></g><g fill="#009aff" fill-opacity="1"><g transform="translate(191.113956, 229.538406)"><g><path d="M 22.15625 -30.640625 C 22.28125 -29.210938 22.332031 -27.8125 22.3125 -26.4375 C 22.300781 -25.070312 22.238281 -23.734375 22.125 -22.421875 L 9.9375 -21.265625 L 9.96875 -18.375 L 21.671875 -19.390625 L 21.671875 -11.5 C 21.441406 -11.457031 20.363281 -11.347656 18.4375 -11.171875 C 16.507812 -10.992188 13.726562 -10.742188 10.09375 -10.421875 L 10.125 -7.703125 C 17.664062 -8.566406 21.6875 -8.972656 22.1875 -8.921875 C 22.414062 -5.710938 22.414062 -3.035156 22.1875 -0.890625 C 17.257812 -0.148438 10.25 0.441406 1.15625 0.890625 C 1.03125 -3.585938 0.960938 -8.273438 0.953125 -13.171875 C 0.941406 -18.066406 1 -23.21875 1.125 -28.625 C 9.164062 -29.738281 16.175781 -30.410156 22.15625 -30.640625 Z M 22.15625 -30.640625 "/></g></g></g><g fill="#009aff" fill-opacity="1"><g transform="translate(214.428249, 229.538406)"><g><path d="M 1.125 -28.953125 L 9.5625 -31.015625 C 10.882812 -29.296875 12.265625 -27.382812 13.703125 -25.28125 C 15.148438 -23.175781 16.695312 -20.835938 18.34375 -18.265625 C 18.144531 -21.503906 18.109375 -25.539062 18.234375 -30.375 C 22.585938 -30.75 25.75 -30.738281 27.71875 -30.34375 C 28.019531 -19.425781 28.019531 -9.785156 27.71875 -1.421875 C 26.226562 -0.847656 24.894531 -0.410156 23.71875 -0.109375 C 22.550781 0.191406 21.519531 0.328125 20.625 0.296875 C 18.03125 -3.640625 14.601562 -8.332031 10.34375 -13.78125 L 10.34375 0.296875 C 5.363281 0.523438 2.273438 0.488281 1.078125 0.1875 C 0.984375 -4.125 0.941406 -8.6875 0.953125 -13.5 C 0.960938 -18.320312 1.019531 -23.472656 1.125 -28.953125 Z M 1.125 -28.953125 "/></g></g></g><g fill="#009aff" fill-opacity="1"><g transform="translate(243.309585, 229.538406)"><g><path d="M 10.5 -30.859375 C 10.625 -26.003906 10.691406 -21.101562 10.703125 -16.15625 C 10.710938 -11.21875 10.671875 -6.179688 10.578125 -1.046875 C 7.804688 -0.597656 4.691406 -0.300781 1.234375 -0.15625 C 0.929688 -7.25 0.859375 -17.195312 1.015625 -30 C 2.703125 -30.320312 4.328125 -30.550781 5.890625 -30.6875 C 7.460938 -30.820312 9 -30.878906 10.5 -30.859375 Z M 10.5 -30.859375 "/></g></g></g><g fill="#009aff" fill-opacity="1"><g transform="translate(254.966732, 229.538406)"><g><path d="M 26.71875 -16.40625 C 26.1875 -8.851562 23.179688 -3.804688 17.703125 -1.265625 C 15.191406 -0.222656 12.578125 0.0976562 9.859375 -0.296875 C 5.378906 -1.421875 2.515625 -5.554688 1.265625 -12.703125 C 0.722656 -18.179688 0.875 -23.875 1.71875 -29.78125 C 3.113281 -30.03125 4.507812 -30.234375 5.90625 -30.390625 C 7.300781 -30.554688 8.71875 -30.675781 10.15625 -30.75 C 9.988281 -21.726562 10.300781 -15.9375 11.09375 -13.375 C 11.769531 -11.476562 12.726562 -10.617188 13.96875 -10.796875 C 15.414062 -11.023438 16.476562 -12.082031 17.15625 -13.96875 C 17.875 -16.707031 18.132812 -22.5 17.9375 -31.34375 C 19.476562 -31.570312 20.960938 -31.738281 22.390625 -31.84375 C 23.828125 -31.957031 25.226562 -32.003906 26.59375 -31.984375 C 27.050781 -26.097656 27.09375 -20.90625 26.71875 -16.40625 Z M 26.71875 -16.40625 "/></g></g></g><g fill="#009aff" fill-opacity="1"><g transform="translate(282.876639, 229.538406)"><g><path d="M 9.53125 -10.765625 C 7.6875 -10.765625 6.128906 -11.1875 4.859375 -12.03125 C 3.160156 -13.25 2.125 -14.457031 1.75 -15.65625 C 0.601562 -19.289062 1.003906 -22.628906 2.953125 -25.671875 C 6.785156 -31.148438 13.695312 -32.179688 23.6875 -28.765625 L 21.890625 -21.109375 C 13.671875 -22.878906 9.757812 -22.53125 10.15625 -20.0625 C 10.382812 -19.0625 11.207031 -18.640625 12.625 -18.796875 C 13.269531 -18.867188 13.910156 -18.914062 14.546875 -18.9375 C 15.179688 -18.96875 15.785156 -18.96875 16.359375 -18.9375 C 18.273438 -18.894531 19.832031 -18.460938 21.03125 -17.640625 C 22.75 -16.460938 23.785156 -15.253906 24.140625 -14.015625 C 25.328125 -10.398438 24.925781 -7.070312 22.9375 -4.03125 C 19.050781 1.519531 11.71875 2.488281 0.9375 -1.125 L 2.734375 -8.703125 C 11.742188 -7.054688 16.085938 -7.367188 15.765625 -9.640625 C 15.546875 -10.609375 14.722656 -11.03125 13.296875 -10.90625 C 12.671875 -10.851562 12.046875 -10.816406 11.421875 -10.796875 C 10.804688 -10.773438 10.175781 -10.765625 9.53125 -10.765625 Z M 9.53125 -10.765625 "/></g></g></g><g fill="#009aff" fill-opacity="1"><g transform="translate(308.619512, 229.538406)"><g><path d="M 22.15625 -30.640625 C 22.28125 -29.210938 22.332031 -27.8125 22.3125 -26.4375 C 22.300781 -25.070312 22.238281 -23.734375 22.125 -22.421875 L 9.9375 -21.265625 L 9.96875 -18.375 L 21.671875 -19.390625 L 21.671875 -11.5 C 21.441406 -11.457031 20.363281 -11.347656 18.4375 -11.171875 C 16.507812 -10.992188 13.726562 -10.742188 10.09375 -10.421875 L 10.125 -7.703125 C 17.664062 -8.566406 21.6875 -8.972656 22.1875 -8.921875 C 22.414062 -5.710938 22.414062 -3.035156 22.1875 -0.890625 C 17.257812 -0.148438 10.25 0.441406 1.15625 0.890625 C 1.03125 -3.585938 0.960938 -8.273438 0.953125 -13.171875 C 0.941406 -18.066406 1 -23.21875 1.125 -28.625 C 9.164062 -29.738281 16.175781 -30.410156 22.15625 -30.640625 Z M 22.15625 -30.640625 "/></g></g></g><g fill="#009aff" fill-opacity="1"><g transform="translate(331.933805, 229.538406)"><g><path d="M 9.53125 -10.765625 C 7.6875 -10.765625 6.128906 -11.1875 4.859375 -12.03125 C 3.160156 -13.25 2.125 -14.457031 1.75 -15.65625 C 0.601562 -19.289062 1.003906 -22.628906 2.953125 -25.671875 C 6.785156 -31.148438 13.695312 -32.179688 23.6875 -28.765625 L 21.890625 -21.109375 C 13.671875 -22.878906 9.757812 -22.53125 10.15625 -20.0625 C 10.382812 -19.0625 11.207031 -18.640625 12.625 -18.796875 C 13.269531 -18.867188 13.910156 -18.914062 14.546875 -18.9375 C 15.179688 -18.96875 15.785156 -18.96875 16.359375 -18.9375 C 18.273438 -18.894531 19.832031 -18.460938 21.03125 -17.640625 C 22.75 -16.460938 23.785156 -15.253906 24.140625 -14.015625 C 25.328125 -10.398438 24.925781 -7.070312 22.9375 -4.03125 C 19.050781 1.519531 11.71875 2.488281 0.9375 -1.125 L 2.734375 -8.703125 C 11.742188 -7.054688 16.085938 -7.367188 15.765625 -9.640625 C 15.546875 -10.609375 14.722656 -11.03125 13.296875 -10.90625 C 12.671875 -10.851562 12.046875 -10.816406 11.421875 -10.796875 C 10.804688 -10.773438 10.175781 -10.765625 9.53125 -10.765625 Z M 9.53125 -10.765625 "/></g></g></g></svg>