<svg xmlns="http://www.w3.org/2000/svg" xmlns:xlink="http://www.w3.org/1999/xlink" width="500" zoomAndPan="magnify" viewBox="0 0 375 374.999991" height="500" preserveAspectRatio="xMidYMid meet" version="1.0"><defs><g/><clipPath id="c9f5b77c5a"><path d="M 48.101562 147 L 101 147 L 101 258 L 48.101562 258 Z M 48.101562 147 " clip-rule="nonzero"/></clipPath><clipPath id="c6e429b560"><path d="M 283.5 147.257812 L 336.101562 147.257812 L 336.101562 258 L 283.5 258 Z M 283.5 147.257812 " clip-rule="nonzero"/></clipPath><clipPath id="2b9c37a9bd"><path d="M 94 29.941406 L 290 29.941406 L 290 91 L 94 91 Z M 94 29.941406 " clip-rule="nonzero"/></clipPath><clipPath id="b2cc8acefe"><path d="M 165 303 L 219.460938 303 L 219.460938 325.441406 L 165 325.441406 Z M 165 303 " clip-rule="nonzero"/></clipPath></defs><g clip-path="url(#c9f5b77c5a)"><path fill="#009aff" d="M 100.769531 157.898438 C 101.160156 153.628906 98.648438 149.6875 94.597656 148.277344 C 93.917969 148.046875 93.242188 147.8125 92.570312 147.578125 C 91.035156 147.042969 89.367188 147.246094 87.992188 148.152344 C 86.621094 149.054688 85.734375 150.539062 85.566406 152.210938 C 85.480469 153.0625 85.398438 153.914062 85.316406 154.769531 C 85.316406 154.769531 80.929688 153.363281 73.484375 152.660156 C 67.742188 152.101562 62.53125 156.53125 61.59375 162.726562 C 54.890625 163.242188 49.285156 169.316406 48.929688 177.105469 C 48.148438 194.121094 48.148438 211.160156 48.929688 228.175781 C 49.285156 235.964844 54.890625 242.039062 61.59375 242.554688 C 62.53125 248.75 67.742188 253.179688 73.484375 252.617188 C 80.929688 251.914062 85.316406 250.511719 85.316406 250.511719 C 85.398438 251.363281 85.480469 252.21875 85.566406 253.070312 C 85.734375 254.742188 86.621094 256.222656 87.992188 257.128906 C 89.027344 257.8125 90.230469 258.09375 91.417969 257.964844 C 91.804688 257.921875 92.191406 257.832031 92.570312 257.703125 C 93.242188 257.46875 93.917969 257.234375 94.597656 257 C 98.648438 255.59375 101.160156 251.652344 100.769531 247.382812 C 98.0625 217.617188 98.0625 187.664062 100.769531 157.898438 " fill-opacity="1" fill-rule="nonzero"/></g><g clip-path="url(#c6e429b560)"><path fill="#009aff" d="M 335.589844 177.105469 C 335.238281 169.316406 329.632812 163.242188 322.929688 162.726562 C 321.992188 156.53125 316.78125 152.101562 311.039062 152.660156 C 303.597656 153.363281 299.207031 154.769531 299.207031 154.769531 C 299.125 153.914062 299.042969 153.0625 298.957031 152.210938 C 298.789062 150.539062 297.902344 149.054688 296.53125 148.152344 C 295.496094 147.46875 294.292969 147.1875 293.105469 147.320312 C 292.71875 147.359375 292.332031 147.445312 291.957031 147.578125 C 291.28125 147.8125 290.605469 148.046875 289.925781 148.277344 C 285.875 149.6875 283.367188 153.628906 283.753906 157.898438 C 286.460938 187.664062 286.460938 217.617188 283.753906 247.382812 C 283.367188 251.652344 285.875 255.59375 289.925781 257 C 290.605469 257.234375 291.28125 257.46875 291.957031 257.703125 C 293.492188 258.238281 295.15625 258.03125 296.53125 257.128906 C 297.902344 256.222656 298.789062 254.742188 298.957031 253.070312 C 299.042969 252.21875 299.125 251.363281 299.207031 250.511719 C 299.207031 250.511719 303.597656 251.914062 311.039062 252.617188 C 316.78125 253.179688 321.992188 248.75 322.929688 242.554688 C 329.632812 242.039062 335.238281 235.964844 335.589844 228.175781 C 336.375 211.160156 336.375 194.121094 335.589844 177.105469 " fill-opacity="1" fill-rule="nonzero"/></g><path fill="#009aff" d="M 310.222656 156.566406 L 306.285156 156.566406 C 306.285156 130.898438 297.960938 106.667969 282.214844 86.488281 L 285.316406 84.066406 C 293.230469 94.207031 299.390625 105.476562 303.625 117.566406 C 308.003906 130.070312 310.222656 143.191406 310.222656 156.566406 " fill-opacity="1" fill-rule="nonzero"/><path fill="#009aff" d="M 78.238281 156.566406 L 74.300781 156.566406 C 74.300781 143.191406 76.519531 130.070312 80.902344 117.5625 C 85.136719 105.476562 91.292969 94.203125 99.207031 84.0625 L 102.308594 86.484375 C 86.5625 106.667969 78.238281 130.902344 78.238281 156.566406 " fill-opacity="1" fill-rule="nonzero"/><g clip-path="url(#2b9c37a9bd)"><path fill="#009aff" d="M 287.867188 73.535156 C 285.933594 71.316406 283.890625 69.128906 281.792969 67.03125 C 270.167969 55.402344 256.628906 46.273438 241.550781 39.898438 C 225.929688 33.292969 209.34375 29.941406 192.261719 29.941406 C 175.175781 29.941406 158.59375 33.292969 142.96875 39.898438 C 127.894531 46.269531 114.355469 55.398438 102.722656 67.027344 C 100.632812 69.121094 98.59375 71.304688 96.671875 73.515625 C 93.941406 76.648438 94.105469 81.410156 97.046875 84.351562 L 100.890625 88.195312 C 102.375 89.679688 104.40625 90.519531 106.503906 90.519531 C 106.597656 90.519531 106.691406 90.515625 106.789062 90.511719 C 108.992188 90.433594 111.089844 89.425781 112.535156 87.753906 C 132.609375 64.523438 161.667969 51.199219 192.261719 51.199219 C 222.851562 51.199219 251.910156 64.523438 271.988281 87.753906 C 273.433594 89.425781 275.527344 90.433594 277.734375 90.511719 C 279.921875 90.59375 282.078125 89.746094 283.632812 88.195312 L 287.472656 84.351562 C 290.414062 81.414062 290.585938 76.660156 287.867188 73.535156 " fill-opacity="1" fill-rule="nonzero"/></g><path fill="#009aff" d="M 244.566406 316.234375 L 219.039062 316.234375 L 219.039062 312.296875 L 244.566406 312.296875 C 278.597656 312.296875 306.285156 284.609375 306.285156 250.578125 L 310.222656 250.578125 C 310.222656 268.113281 303.394531 284.601562 290.992188 297.003906 C 278.59375 309.40625 262.105469 316.234375 244.566406 316.234375 " fill-opacity="1" fill-rule="nonzero"/><g clip-path="url(#b2cc8acefe)"><path fill="#009aff" d="M 216.714844 308.222656 L 214.046875 305.871094 C 211.976562 304.042969 209.3125 303.039062 206.550781 303.039062 L 176.304688 303.039062 C 170.117188 303.039062 165.078125 308.074219 165.078125 314.265625 C 165.078125 320.457031 170.117188 325.496094 176.304688 325.496094 L 206.550781 325.496094 C 209.3125 325.496094 211.972656 324.488281 214.046875 322.660156 L 216.714844 320.3125 C 218.449219 318.78125 219.445312 316.578125 219.445312 314.265625 C 219.445312 311.953125 218.449219 309.75 216.714844 308.222656 " fill-opacity="1" fill-rule="nonzero"/></g><path stroke-linecap="butt" transform="matrix(1.035879, 0, 0, 1.035879, 37.500002, -52.999998)" fill="none" stroke-linejoin="miter" d="M 157.799244 141.685968 C 158.934301 141.685968 160.114609 142.063063 161.343939 142.821024 C 162.573269 143.669488 163.659303 144.615997 164.602041 145.65678 C 165.454276 146.693792 166.163215 147.828848 166.728858 149.058178 C 167.298272 150.09519 167.486819 151.08695 167.298272 152.033459 L 137.394625 288.511745 C 137.29658 289.269706 136.685686 290.261466 135.550629 291.487025 C 134.60412 292.716356 133.378561 293.851412 131.866409 294.888424 C 131.108448 295.457838 130.376883 295.951832 129.667944 296.37795 C 128.959006 296.804067 128.227441 297.252811 127.473251 297.72418 C 125.772551 298.482141 124.448947 298.859236 123.502438 298.859236 L 28.267052 298.859236 L 57.884107 163.655533 L 41.163707 141.685968 Z M 95.586083 172.015733 L 74.468753 268.529471 L 102.38888 268.529471 L 123.502438 172.015733 Z M 95.586083 172.015733 " stroke="#ffffff" stroke-width="11.247381" stroke-opacity="1" stroke-miterlimit="4"/><g fill="#000000" fill-opacity="1"><g transform="translate(66.779772, 256.727846)"><g><path d="M 134.171875 -162.953125 C 135.347656 -162.953125 136.570312 -162.5625 137.84375 -161.78125 C 139.125 -160.894531 140.25 -159.914062 141.21875 -158.84375 C 142.101562 -157.769531 142.835938 -156.59375 143.421875 -155.3125 C 144.015625 -154.238281 144.210938 -153.210938 144.015625 -152.234375 L 113.046875 -10.859375 C 112.941406 -10.078125 112.300781 -9.050781 111.125 -7.78125 C 110.144531 -6.507812 108.875 -5.332031 107.3125 -4.25 C 106.53125 -3.664062 105.769531 -3.15625 105.03125 -2.71875 C 104.300781 -2.28125 103.546875 -1.816406 102.765625 -1.328125 C 101.003906 -0.535156 99.632812 -0.140625 98.65625 -0.140625 L 0 -0.140625 L 30.6875 -140.203125 L 13.359375 -162.953125 Z M 69.734375 -131.53125 L 47.859375 -31.5625 L 76.78125 -31.5625 L 98.65625 -131.53125 Z M 69.734375 -131.53125 "/></g></g></g><path stroke-linecap="butt" transform="matrix(1.035879, 0, 0, 1.035879, 173.448509, -52.999998)" fill="none" stroke-linejoin="miter" d="M 129.525335 229.413389 L 114.362338 298.859236 L 19.123181 298.859236 C 17.988125 298.859236 16.807817 298.482141 15.582258 297.72418 C 14.352927 296.875716 13.266893 295.929207 12.320384 294.888424 C 11.47192 293.945686 10.762981 292.81063 10.193568 291.487025 C 9.627925 290.450014 9.439377 289.458253 9.627925 288.511745 L 41.797914 141.685968 L 137.037071 141.685968 C 138.172128 141.685968 139.352436 142.063063 140.581766 142.821024 C 141.807325 143.669488 142.89713 144.615997 143.839868 145.65678 C 144.692103 146.693792 145.401042 147.828848 145.966685 149.058178 C 146.532328 150.09519 146.720875 151.08695 146.532328 152.033459 L 135.762489 201.067145 L 100.89627 179.527468 L 102.596969 172.015733 L 74.537317 172.015733 L 67.877816 202.202201 L 38.25699 202.202201 L 62.206305 228.138807 L 53.419987 268.529471 L 81.48341 268.529471 L 87.999615 238.625824 L 81.766232 238.625824 L 53.846105 208.296059 L 107.842363 208.296059 Z M 129.525335 229.413389 " stroke="#ffffff" stroke-width="11.247381" stroke-opacity="1" stroke-miterlimit="4"/><g fill="#009aff" fill-opacity="1"><g transform="translate(180.926261, 256.727846)"><g><path d="M 126.6875 -72.078125 L 110.984375 -0.140625 L 12.328125 -0.140625 C 11.148438 -0.140625 9.925781 -0.535156 8.65625 -1.328125 C 7.382812 -2.203125 6.257812 -3.175781 5.28125 -4.25 C 4.40625 -5.226562 3.671875 -6.40625 3.078125 -7.78125 C 2.492188 -8.851562 2.300781 -9.878906 2.5 -10.859375 L 35.828125 -162.953125 L 134.46875 -162.953125 C 135.644531 -162.953125 136.867188 -162.5625 138.140625 -161.78125 C 139.410156 -160.894531 140.535156 -159.914062 141.515625 -158.84375 C 142.398438 -157.769531 143.132812 -156.59375 143.71875 -155.3125 C 144.3125 -154.238281 144.507812 -153.210938 144.3125 -152.234375 L 133.15625 -101.4375 L 97.03125 -123.75 L 98.796875 -131.53125 L 69.734375 -131.53125 L 62.828125 -100.265625 L 32.15625 -100.265625 L 56.953125 -73.40625 L 47.859375 -31.5625 L 76.921875 -31.5625 L 83.671875 -62.53125 L 77.21875 -62.53125 L 48.296875 -93.953125 L 104.234375 -93.953125 Z M 126.6875 -72.078125 "/></g></g></g><g fill="#000000" fill-opacity="1"><g transform="translate(64.922398, 280.282231)"><g><path d="M 0.6875 -16.125 C 1.550781 -16.65625 3.296875 -17.066406 5.921875 -17.359375 C 8.742188 -17.671875 11.054688 -16.851562 12.859375 -14.90625 C 13.671875 -14.019531 14.132812 -12.550781 14.25 -10.5 C 14.207031 -7.332031 13.460938 -4.929688 12.015625 -3.296875 C 10.578125 -1.691406 8.515625 -0.679688 5.828125 -0.265625 C 4.066406 -0.015625 2.378906 -0.0390625 0.765625 -0.34375 C 0.609375 -2.945312 0.523438 -5.550781 0.515625 -8.15625 C 0.503906 -10.769531 0.5625 -13.425781 0.6875 -16.125 Z M 5.21875 -5.4375 C 7.175781 -5.476562 8.492188 -6.144531 9.171875 -7.4375 C 9.640625 -8.945312 9.53125 -10.269531 8.84375 -11.40625 C 8.207031 -12.15625 6.988281 -12.382812 5.1875 -12.09375 C 5.164062 -10.957031 5.15625 -9.835938 5.15625 -8.734375 C 5.164062 -7.628906 5.1875 -6.53125 5.21875 -5.4375 Z M 5.21875 -5.4375 "/></g></g></g><g fill="#000000" fill-opacity="1"><g transform="translate(79.681611, 280.282231)"><g><path d="M 5.796875 -17.03125 C 5.859375 -14.351562 5.894531 -11.648438 5.90625 -8.921875 C 5.914062 -6.191406 5.890625 -3.410156 5.828125 -0.578125 C 4.304688 -0.328125 2.59375 -0.160156 0.6875 -0.078125 C 0.519531 -3.992188 0.476562 -9.484375 0.5625 -16.546875 C 1.488281 -16.734375 2.382812 -16.863281 3.25 -16.9375 C 4.125 -17.007812 4.972656 -17.039062 5.796875 -17.03125 Z M 5.796875 -17.03125 "/></g></g></g><g fill="#000000" fill-opacity="1"><g transform="translate(86.113, 280.282231)"><g><path d="M 5.25 -5.9375 C 4.238281 -5.9375 3.382812 -6.171875 2.6875 -6.640625 C 1.75 -7.304688 1.175781 -7.972656 0.96875 -8.640625 C 0.332031 -10.640625 0.550781 -12.476562 1.625 -14.15625 C 3.738281 -17.1875 7.550781 -17.757812 13.0625 -15.875 L 12.078125 -11.640625 C 7.546875 -12.617188 5.390625 -12.425781 5.609375 -11.0625 C 5.734375 -10.519531 6.1875 -10.289062 6.96875 -10.375 C 7.320312 -10.414062 7.675781 -10.441406 8.03125 -10.453125 C 8.382812 -10.460938 8.71875 -10.460938 9.03125 -10.453125 C 10.082031 -10.421875 10.941406 -10.179688 11.609375 -9.734375 C 12.554688 -9.085938 13.125 -8.421875 13.3125 -7.734375 C 13.976562 -5.734375 13.757812 -3.894531 12.65625 -2.21875 C 10.507812 0.84375 6.460938 1.375 0.515625 -0.625 L 1.5 -4.796875 C 6.476562 -3.890625 8.878906 -4.0625 8.703125 -5.3125 C 8.578125 -5.851562 8.125 -6.085938 7.34375 -6.015625 C 7 -5.992188 6.65625 -5.972656 6.3125 -5.953125 C 5.96875 -5.941406 5.613281 -5.9375 5.25 -5.9375 Z M 5.25 -5.9375 "/></g></g></g><g fill="#000000" fill-opacity="1"><g transform="translate(100.315655, 280.282231)"><g><path d="M 4.859375 -16.375 C 6.679688 -16.59375 8.296875 -16.59375 9.703125 -16.375 C 12.578125 -15.789062 14.054688 -13.859375 14.140625 -10.578125 C 14.085938 -6.828125 12.320312 -4.382812 8.84375 -3.25 C 8.0625 -3.019531 7.050781 -2.882812 5.8125 -2.84375 C 5.8125 -2.363281 5.804688 -1.875 5.796875 -1.375 C 5.796875 -0.875 5.796875 -0.359375 5.796875 0.171875 C 5.085938 0.304688 4.304688 0.410156 3.453125 0.484375 C 2.609375 0.554688 1.6875 0.609375 0.6875 0.640625 C 0.582031 -2.335938 0.53125 -5.179688 0.53125 -7.890625 C 0.53125 -10.597656 0.566406 -13.191406 0.640625 -15.671875 C 0.898438 -15.867188 2.304688 -16.101562 4.859375 -16.375 Z M 5.828125 -7.21875 C 7.992188 -7.425781 9.175781 -8.070312 9.375 -9.15625 C 9.539062 -10.40625 9.28125 -11.226562 8.59375 -11.625 C 8.0625 -11.914062 7.128906 -11.941406 5.796875 -11.703125 C 5.804688 -11.003906 5.8125 -10.28125 5.8125 -9.53125 C 5.820312 -8.78125 5.828125 -8.007812 5.828125 -7.21875 Z M 5.828125 -7.21875 "/></g></g></g><g fill="#000000" fill-opacity="1"><g transform="translate(114.971805, 280.282231)"><g><path d="M 6.140625 -2 C 6.078125 -1.6875 6.007812 -1.378906 5.9375 -1.078125 C 5.863281 -0.773438 5.796875 -0.460938 5.734375 -0.140625 C 3.210938 0.0234375 1.472656 -0.0820312 0.515625 -0.46875 C 1.628906 -4.632812 2.570312 -8.082031 3.34375 -10.8125 C 4.125 -13.550781 4.738281 -15.601562 5.1875 -16.96875 C 7.25 -17.4375 9.117188 -17.609375 10.796875 -17.484375 C 11.742188 -15.046875 12.671875 -12.523438 13.578125 -9.921875 C 14.492188 -7.316406 15.390625 -4.59375 16.265625 -1.75 C 15.421875 -1.269531 13.632812 -0.863281 10.90625 -0.53125 C 10.8125 -0.851562 10.722656 -1.164062 10.640625 -1.46875 C 10.554688 -1.769531 10.46875 -2.0625 10.375 -2.34375 C 9.789062 -2.300781 9.148438 -2.25 8.453125 -2.1875 C 7.765625 -2.132812 6.992188 -2.070312 6.140625 -2 Z M 9.109375 -6.53125 C 8.898438 -7.21875 8.707031 -7.832031 8.53125 -8.375 C 8.363281 -8.914062 8.207031 -9.390625 8.0625 -9.796875 C 7.90625 -9.210938 7.753906 -8.640625 7.609375 -8.078125 C 7.472656 -7.515625 7.328125 -6.945312 7.171875 -6.375 Z M 9.109375 -6.53125 "/></g></g></g><g fill="#000000" fill-opacity="1"><g transform="translate(131.751134, 280.282231)"><g><path d="M 10.375 -12.03125 C 10.394531 -9.519531 10.40625 -7.304688 10.40625 -5.390625 C 10.40625 -3.472656 10.378906 -1.84375 10.328125 -0.5 C 9.117188 -0.300781 8.082031 -0.164062 7.21875 -0.09375 C 6.363281 -0.03125 5.671875 -0.0234375 5.140625 -0.078125 C 5.109375 -1.910156 5.082031 -3.773438 5.0625 -5.671875 C 5.050781 -7.578125 5.0625 -9.546875 5.09375 -11.578125 C 3.75 -11.460938 2.265625 -11.34375 0.640625 -11.21875 C 0.566406 -11.925781 0.523438 -12.6875 0.515625 -13.5 C 0.515625 -14.320312 0.550781 -15.203125 0.625 -16.140625 C 3.125 -16.429688 5.566406 -16.6875 7.953125 -16.90625 C 10.335938 -17.125 12.6875 -17.304688 15 -17.453125 C 15.070312 -15.941406 15.054688 -14.300781 14.953125 -12.53125 C 14.585938 -12.445312 13.0625 -12.28125 10.375 -12.03125 Z M 10.375 -12.03125 "/></g></g></g><g fill="#000000" fill-opacity="1"><g transform="translate(147.314275, 280.282231)"><g><path d="M 8.703125 -11.40625 C 7.554688 -11.320312 6.617188 -10.617188 5.890625 -9.296875 C 5.398438 -8.140625 5.5 -7.066406 6.1875 -6.078125 C 6.800781 -5.328125 7.671875 -5.03125 8.796875 -5.1875 C 9.734375 -5.425781 10.65625 -5.867188 11.5625 -6.515625 C 12.257812 -5.867188 13.164062 -4.570312 14.28125 -2.625 C 14.15625 -2.46875 13.988281 -2.289062 13.78125 -2.09375 C 13.582031 -1.90625 13.34375 -1.6875 13.0625 -1.4375 C 11.570312 -0.425781 9.96875 0.117188 8.25 0.203125 C 3.09375 0.203125 0.515625 -2.363281 0.515625 -7.5 C 0.585938 -8.53125 0.796875 -9.566406 1.140625 -10.609375 C 1.972656 -12.878906 3.457031 -14.628906 5.59375 -15.859375 C 8.007812 -17.117188 10.5 -17.191406 13.0625 -16.078125 C 13.53125 -15.785156 13.863281 -15.582031 14.0625 -15.46875 C 13.039062 -13.289062 12.078125 -11.703125 11.171875 -10.703125 C 10.359375 -11.140625 9.535156 -11.375 8.703125 -11.40625 Z M 8.703125 -11.40625 "/></g></g></g><g fill="#000000" fill-opacity="1"><g transform="translate(162.114714, 280.282231)"><g><path d="M 5.890625 -4.71875 C 5.878906 -3.976562 5.867188 -3.234375 5.859375 -2.484375 C 5.859375 -1.734375 5.847656 -0.988281 5.828125 -0.25 C 4.304688 0 2.59375 0.164062 0.6875 0.25 C 0.601562 -1.71875 0.550781 -4.066406 0.53125 -6.796875 C 0.519531 -9.535156 0.53125 -12.675781 0.5625 -16.21875 C 2.414062 -16.5625 4.160156 -16.726562 5.796875 -16.71875 C 5.816406 -15.550781 5.832031 -14.382812 5.84375 -13.21875 C 5.863281 -12.050781 5.878906 -10.867188 5.890625 -9.671875 C 6.296875 -9.710938 6.707031 -9.753906 7.125 -9.796875 C 7.550781 -9.835938 7.992188 -9.878906 8.453125 -9.921875 C 8.453125 -10.992188 8.453125 -12.109375 8.453125 -13.265625 C 8.453125 -14.421875 8.46875 -15.640625 8.5 -16.921875 C 10.332031 -17.273438 12.066406 -17.441406 13.703125 -17.421875 C 13.773438 -14.722656 13.8125 -12.007812 13.8125 -9.28125 C 13.820312 -6.550781 13.800781 -3.773438 13.75 -0.953125 C 12.226562 -0.703125 10.507812 -0.535156 8.59375 -0.453125 C 8.570312 -1.128906 8.550781 -1.835938 8.53125 -2.578125 C 8.519531 -3.316406 8.507812 -4.113281 8.5 -4.96875 C 7.625 -4.851562 6.753906 -4.769531 5.890625 -4.71875 Z M 5.890625 -4.71875 "/></g></g></g><g fill="#009aff" fill-opacity="1"><g transform="translate(181.991834, 280.282231)"><g><path d="M 5.875 -0.1875 C 3.59375 -0.625 1.929688 -2.109375 0.890625 -4.640625 C 0.691406 -5.285156 0.570312 -5.972656 0.53125 -6.703125 C 0.488281 -7.441406 0.523438 -8.234375 0.640625 -9.078125 C 0.859375 -10.628906 1.347656 -11.96875 2.109375 -13.09375 C 3.023438 -14.40625 4.1875 -15.488281 5.59375 -16.34375 C 9.144531 -18.1875 12.425781 -17.929688 15.4375 -15.578125 L 12.640625 -11.15625 C 12.253906 -11.300781 11.851562 -11.4375 11.4375 -11.5625 C 11.03125 -11.6875 10.601562 -11.785156 10.15625 -11.859375 C 8.800781 -12.046875 7.632812 -11.53125 6.65625 -10.3125 C 6.1875 -9.675781 5.941406 -9.015625 5.921875 -8.328125 C 5.796875 -6.921875 6.390625 -5.910156 7.703125 -5.296875 C 9.492188 -5.035156 10.546875 -5.476562 10.859375 -6.625 C 8.835938 -6.457031 7.785156 -6.378906 7.703125 -6.390625 C 7.679688 -7.148438 7.671875 -7.847656 7.671875 -8.484375 C 7.671875 -9.117188 7.691406 -9.695312 7.734375 -10.21875 C 10.453125 -10.5 12.515625 -10.703125 13.921875 -10.828125 C 15.328125 -10.960938 16.09375 -11.015625 16.21875 -10.984375 C 16.25 -10.242188 16.265625 -9.554688 16.265625 -8.921875 C 16.273438 -8.296875 16.273438 -7.691406 16.265625 -7.109375 C 16.265625 -6.472656 16.175781 -5.882812 16 -5.34375 C 14.46875 -1.320312 11.09375 0.394531 5.875 -0.1875 Z M 5.875 -0.1875 "/></g></g></g><g fill="#009aff" fill-opacity="1"><g transform="translate(198.79178, 280.282231)"><g><path d="M 12.21875 -16.90625 C 12.289062 -16.125 12.320312 -15.351562 12.3125 -14.59375 C 12.3125 -13.84375 12.273438 -13.101562 12.203125 -12.375 L 5.484375 -11.734375 L 5.5 -10.140625 L 11.953125 -10.703125 L 11.953125 -6.34375 C 11.828125 -6.320312 11.234375 -6.257812 10.171875 -6.15625 C 9.109375 -6.0625 7.570312 -5.925781 5.5625 -5.75 L 5.59375 -4.25 C 9.75 -4.726562 11.96875 -4.953125 12.25 -4.921875 C 12.375 -3.148438 12.375 -1.675781 12.25 -0.5 C 9.519531 -0.0820312 5.648438 0.25 0.640625 0.5 C 0.566406 -1.976562 0.523438 -4.566406 0.515625 -7.265625 C 0.515625 -9.960938 0.550781 -12.804688 0.625 -15.796875 C 5.0625 -16.410156 8.925781 -16.78125 12.21875 -16.90625 Z M 12.21875 -16.90625 "/></g></g></g><g fill="#009aff" fill-opacity="1"><g transform="translate(211.654558, 280.282231)"><g><path d="M 0.625 -15.96875 L 5.28125 -17.109375 C 6.007812 -16.160156 6.769531 -15.101562 7.5625 -13.9375 C 8.363281 -12.78125 9.21875 -11.492188 10.125 -10.078125 C 10.007812 -11.867188 9.988281 -14.097656 10.0625 -16.765625 C 12.46875 -16.960938 14.210938 -16.953125 15.296875 -16.734375 C 15.460938 -10.710938 15.460938 -5.394531 15.296875 -0.78125 C 14.472656 -0.46875 13.738281 -0.226562 13.09375 -0.0625 C 12.445312 0.101562 11.875 0.179688 11.375 0.171875 C 9.945312 -2.003906 8.054688 -4.597656 5.703125 -7.609375 L 5.703125 0.171875 C 2.960938 0.285156 1.257812 0.265625 0.59375 0.109375 C 0.539062 -2.273438 0.515625 -4.796875 0.515625 -7.453125 C 0.523438 -10.109375 0.5625 -12.945312 0.625 -15.96875 Z M 0.625 -15.96875 "/></g></g></g><g fill="#009aff" fill-opacity="1"><g transform="translate(227.588741, 280.282231)"><g><path d="M 5.796875 -17.03125 C 5.859375 -14.351562 5.894531 -11.648438 5.90625 -8.921875 C 5.914062 -6.191406 5.890625 -3.410156 5.828125 -0.578125 C 4.304688 -0.328125 2.59375 -0.160156 0.6875 -0.078125 C 0.519531 -3.992188 0.476562 -9.484375 0.5625 -16.546875 C 1.488281 -16.734375 2.382812 -16.863281 3.25 -16.9375 C 4.125 -17.007812 4.972656 -17.039062 5.796875 -17.03125 Z M 5.796875 -17.03125 "/></g></g></g><g fill="#009aff" fill-opacity="1"><g transform="translate(234.02013, 280.282231)"><g><path d="M 14.734375 -9.046875 C 14.453125 -4.878906 12.796875 -2.097656 9.765625 -0.703125 C 8.378906 -0.117188 6.9375 0.0546875 5.4375 -0.171875 C 2.96875 -0.785156 1.390625 -3.066406 0.703125 -7.015625 C 0.398438 -10.035156 0.484375 -13.175781 0.953125 -16.4375 C 1.722656 -16.570312 2.488281 -16.679688 3.25 -16.765625 C 4.019531 -16.859375 4.804688 -16.925781 5.609375 -16.96875 C 5.515625 -11.988281 5.6875 -8.789062 6.125 -7.375 C 6.488281 -6.332031 7.015625 -5.859375 7.703125 -5.953125 C 8.503906 -6.078125 9.09375 -6.660156 9.46875 -7.703125 C 9.863281 -9.222656 10.003906 -12.421875 9.890625 -17.296875 C 10.742188 -17.421875 11.566406 -17.515625 12.359375 -17.578125 C 13.148438 -17.640625 13.921875 -17.660156 14.671875 -17.640625 C 14.921875 -14.398438 14.941406 -11.535156 14.734375 -9.046875 Z M 14.734375 -9.046875 "/></g></g></g><g fill="#009aff" fill-opacity="1"><g transform="translate(249.418363, 280.282231)"><g><path d="M 5.25 -5.9375 C 4.238281 -5.9375 3.382812 -6.171875 2.6875 -6.640625 C 1.75 -7.304688 1.175781 -7.972656 0.96875 -8.640625 C 0.332031 -10.640625 0.550781 -12.476562 1.625 -14.15625 C 3.738281 -17.1875 7.550781 -17.757812 13.0625 -15.875 L 12.078125 -11.640625 C 7.546875 -12.617188 5.390625 -12.425781 5.609375 -11.0625 C 5.734375 -10.519531 6.1875 -10.289062 6.96875 -10.375 C 7.320312 -10.414062 7.675781 -10.441406 8.03125 -10.453125 C 8.382812 -10.460938 8.71875 -10.460938 9.03125 -10.453125 C 10.082031 -10.421875 10.941406 -10.179688 11.609375 -9.734375 C 12.554688 -9.085938 13.125 -8.421875 13.3125 -7.734375 C 13.976562 -5.734375 13.757812 -3.894531 12.65625 -2.21875 C 10.507812 0.84375 6.460938 1.375 0.515625 -0.625 L 1.5 -4.796875 C 6.476562 -3.890625 8.878906 -4.0625 8.703125 -5.3125 C 8.578125 -5.851562 8.125 -6.085938 7.34375 -6.015625 C 7 -5.992188 6.65625 -5.972656 6.3125 -5.953125 C 5.96875 -5.941406 5.613281 -5.9375 5.25 -5.9375 Z M 5.25 -5.9375 "/></g></g></g><g fill="#009aff" fill-opacity="1"><g transform="translate(263.621018, 280.282231)"><g><path d="M 12.21875 -16.90625 C 12.289062 -16.125 12.320312 -15.351562 12.3125 -14.59375 C 12.3125 -13.84375 12.273438 -13.101562 12.203125 -12.375 L 5.484375 -11.734375 L 5.5 -10.140625 L 11.953125 -10.703125 L 11.953125 -6.34375 C 11.828125 -6.320312 11.234375 -6.257812 10.171875 -6.15625 C 9.109375 -6.0625 7.570312 -5.925781 5.5625 -5.75 L 5.59375 -4.25 C 9.75 -4.726562 11.96875 -4.953125 12.25 -4.921875 C 12.375 -3.148438 12.375 -1.675781 12.25 -0.5 C 9.519531 -0.0820312 5.648438 0.25 0.640625 0.5 C 0.566406 -1.976562 0.523438 -4.566406 0.515625 -7.265625 C 0.515625 -9.960938 0.550781 -12.804688 0.625 -15.796875 C 5.0625 -16.410156 8.925781 -16.78125 12.21875 -16.90625 Z M 12.21875 -16.90625 "/></g></g></g><g fill="#009aff" fill-opacity="1"><g transform="translate(276.483795, 280.282231)"><g><path d="M 5.25 -5.9375 C 4.238281 -5.9375 3.382812 -6.171875 2.6875 -6.640625 C 1.75 -7.304688 1.175781 -7.972656 0.96875 -8.640625 C 0.332031 -10.640625 0.550781 -12.476562 1.625 -14.15625 C 3.738281 -17.1875 7.550781 -17.757812 13.0625 -15.875 L 12.078125 -11.640625 C 7.546875 -12.617188 5.390625 -12.425781 5.609375 -11.0625 C 5.734375 -10.519531 6.1875 -10.289062 6.96875 -10.375 C 7.320312 -10.414062 7.675781 -10.441406 8.03125 -10.453125 C 8.382812 -10.460938 8.71875 -10.460938 9.03125 -10.453125 C 10.082031 -10.421875 10.941406 -10.179688 11.609375 -9.734375 C 12.554688 -9.085938 13.125 -8.421875 13.3125 -7.734375 C 13.976562 -5.734375 13.757812 -3.894531 12.65625 -2.21875 C 10.507812 0.84375 6.460938 1.375 0.515625 -0.625 L 1.5 -4.796875 C 6.476562 -3.890625 8.878906 -4.0625 8.703125 -5.3125 C 8.578125 -5.851562 8.125 -6.085938 7.34375 -6.015625 C 7 -5.992188 6.65625 -5.972656 6.3125 -5.953125 C 5.96875 -5.941406 5.613281 -5.9375 5.25 -5.9375 Z M 5.25 -5.9375 "/></g></g></g></svg>